<svg width="143" height="21" viewBox="0 0 143 21" fill="none" xmlns="http://www.w3.org/2000/svg">
<path d="M106.765 20.4827C105.952 20.4827 105.239 20.4827 104.394 20.4827C104.394 20.0981 104.394 19.7476 104.394 19.397C104.392 16.4797 104.412 13.5623 104.383 10.645C104.366 8.98236 103.386 7.92615 101.939 7.89979C100.417 7.87342 99.378 8.92187 99.3594 10.6062C99.3283 13.5236 99.35 16.4409 99.3485 19.3583C99.3485 19.7103 99.3485 20.0624 99.3485 20.4657C98.5001 20.4657 97.7572 20.4657 96.8546 20.4657C96.8546 20.1322 96.8546 19.7879 96.8546 19.4451C96.853 16.4626 96.8654 13.4786 96.8453 10.4961C96.8375 9.38715 96.3443 8.52792 95.2927 8.089C94.3358 7.6904 93.3137 7.75555 92.6732 8.55119C92.1815 9.16072 91.8155 10.051 91.7922 10.828C91.6961 14.0044 91.7519 17.1838 91.7519 20.4408C90.9532 20.4408 90.1932 20.4408 89.3262 20.4408C89.3262 18.8542 89.3262 17.2908 89.3262 15.7275C89.3262 14.023 89.3495 12.3185 89.32 10.614C89.2812 8.42091 90.2227 6.79085 92.1784 5.86182C94.176 4.91419 96.062 5.26781 97.7371 6.71485C97.8348 6.7986 97.9402 6.8715 97.9992 6.91493C98.7995 6.46205 99.5145 5.9037 100.324 5.62608C103.238 4.62571 106.497 6.52874 106.706 9.61359C106.953 13.1948 106.765 16.8038 106.765 20.4827Z" fill="#1D545D"/>
<path d="M0 0.486084C0.839068 0.486084 1.55251 0.486084 2.38227 0.486084C2.38227 2.66673 2.38227 4.84117 2.38227 7.26532C2.82895 6.96598 3.0802 6.79538 3.33456 6.62788C5.92466 4.92337 9.19253 4.94354 11.7361 6.67906C14.2331 8.38356 15.4863 11.5382 14.8535 14.5254C14.2192 17.5187 11.9393 19.7567 8.91491 20.3539C4.53966 21.2177 0.505613 18.181 0.0341213 13.6615C-0.00310173 13.3048 0.00155129 12.9418 0.00155129 12.582C3.31355e-07 8.58984 0 4.59612 0 0.486084ZM7.50354 7.89501C4.6963 7.89656 2.45827 10.1299 2.45517 12.9341C2.45207 15.7398 4.68389 17.9669 7.50044 17.9654C10.3185 17.9638 12.555 15.7382 12.5535 12.9372C12.5519 10.1423 10.3015 7.89501 7.50354 7.89501Z" fill="#1D545D"/>
<path d="M47.7178 0.47998C48.4746 0.47998 49.185 0.47998 50.0008 0.47998C50.0008 2.68389 50.0008 4.85833 50.0008 6.97694C51.2974 6.46978 52.4808 5.83234 53.7464 5.54386C57.6997 4.6443 61.5958 7.31971 62.4534 11.4018C63.3003 15.4312 60.7303 19.4932 56.8142 20.3183C51.9348 21.345 47.6387 17.86 47.6325 12.8597C47.6278 8.82879 47.6387 4.7963 47.6449 0.765356C47.6433 0.703318 47.6743 0.64128 47.7178 0.47998ZM55.0492 17.967C57.8781 17.9748 60.1332 15.791 60.1782 13.0009C60.2232 10.2402 57.9448 7.91682 55.1748 7.89666C52.3412 7.87495 50.0225 10.1688 50.0411 12.973C50.0597 15.7073 52.3195 17.9593 55.0492 17.967Z" fill="#1D545D"/>
<path d="M30.6593 0.490967C31.5247 0.490967 32.2351 0.490967 33.0524 0.490967C33.0524 2.70263 33.0524 4.87397 33.0524 6.95226C34.3459 6.45285 35.5355 5.82471 36.8042 5.53623C40.6847 4.65374 44.6458 7.3586 45.4678 11.3368C46.3193 15.4469 43.7571 19.5135 39.8053 20.3246C34.9508 21.3219 30.6732 17.871 30.6608 12.9359C30.6515 9.13445 30.6593 5.33461 30.6593 1.53321C30.6593 1.20906 30.6593 0.888012 30.6593 0.490967ZM38.1535 17.9672C40.9561 17.9656 43.1988 15.7136 43.1833 12.9172C43.1678 10.1162 40.9173 7.88903 38.1116 7.89679C35.323 7.90454 33.0648 10.172 33.0726 12.9591C33.0788 15.7431 35.337 17.9687 38.1535 17.9672Z" fill="#1D545D"/>
<path d="M85.3451 18.0214C82.7349 20.8891 78.586 21.3218 75.4733 19.1225C72.3434 16.9109 71.4036 12.6349 73.2926 9.21812C75.115 5.92389 79.0947 4.50631 82.5891 5.90682C85.8988 7.23445 87.9973 11.0188 87.1179 14.2014C83.1241 14.2014 79.1056 14.2014 75.0762 14.2014C75.5725 17.7949 79.9462 19.0807 83.3025 16.6395C83.9493 17.0768 84.6177 17.5297 85.3451 18.0214ZM75.0592 11.6423C78.2665 11.6423 81.3979 11.6423 84.5371 11.6423C84.2812 9.68496 82.2882 7.99907 80.1773 7.90911C77.6322 7.8021 75.5493 9.29257 75.0592 11.6423Z" fill="#1D545D"/>
<path d="M123.777 20.4734C122.906 20.4734 122.195 20.4734 121.42 20.4734C121.39 19.898 121.364 19.3614 121.344 18.9472C120.094 19.428 118.901 20.0593 117.632 20.3447C113.774 21.2085 109.828 18.53 109.003 14.6077C108.137 10.4976 110.678 6.40775 114.619 5.56558C119.456 4.53109 123.76 7.99593 123.777 12.945C123.785 15.4312 123.777 17.9174 123.777 20.4734ZM116.33 17.967C119.141 17.9655 121.381 15.7135 121.362 12.9047C121.344 10.1378 119.113 7.90442 116.361 7.89667C113.533 7.88891 111.298 10.1037 111.289 12.9233C111.281 15.7492 113.497 17.9686 116.33 17.967Z" fill="#1D545D"/>
<path d="M17.0218 5.4043C17.8872 5.4043 18.6007 5.4043 19.4118 5.4043C19.432 5.77808 19.4646 6.12394 19.4661 6.4698C19.4723 9.09248 19.4367 11.7151 19.4832 14.3363C19.522 16.4456 20.8077 17.8942 22.5835 17.9671C24.6866 18.0524 26.1988 16.6565 26.2361 14.4867C26.2826 11.833 26.25 9.17778 26.2516 6.52254C26.2516 6.17047 26.2516 5.81995 26.2516 5.41981C27.086 5.41981 27.8196 5.41981 28.6524 5.41981C28.6524 6.47446 28.6524 7.48258 28.6524 8.48915C28.6524 10.5535 28.6633 12.6194 28.6493 14.6837C28.6292 17.9298 26.0561 20.5184 22.8643 20.5199C19.6848 20.5215 17.0466 17.9143 17.0265 14.7131C17.0063 11.6391 17.0218 8.56515 17.0218 5.4043Z" fill="#1D545D"/>
<path d="M142.324 18.0197C142.324 18.8836 142.324 19.656 142.324 20.4206C139.244 20.8673 136.646 18.637 136.604 15.5211C136.57 13.0318 136.598 10.5425 136.598 7.95554C136.015 7.91522 135.48 7.87954 134.887 7.83922C134.887 7.02186 134.887 6.25259 134.887 5.40887C135.425 5.38095 135.936 5.35459 136.573 5.32202C136.573 3.71677 136.573 2.13325 136.573 0.498535C137.44 0.498535 138.177 0.498535 139.007 0.498535C139.007 2.09292 139.007 3.65474 139.007 5.29875C139.628 5.34218 140.164 5.37785 140.75 5.41818C140.75 6.23398 140.75 7.00325 140.75 7.84077C140.19 7.87334 139.681 7.90281 139.033 7.94159C139.033 9.19786 139.033 10.4324 139.033 11.6654C139.033 12.8131 139.016 13.9609 139.038 15.1086C139.075 17.0488 139.936 17.9065 141.863 17.9716C141.994 17.9747 142.122 17.998 142.324 18.0197Z" fill="#1D545D"/>
<path d="M70.3211 18.0554C70.3211 18.8867 70.3211 19.656 70.3211 20.4159C67.4534 20.8549 64.7159 18.8154 64.6647 16.0298C64.5717 10.8884 64.6384 5.74543 64.6384 0.524902C65.4014 0.524902 66.1366 0.524902 67.0269 0.524902C67.0269 0.838196 67.0269 1.18251 67.0269 1.52682C67.0269 5.85089 67.0269 10.1765 67.0269 14.5006C67.0269 17.1465 67.6317 17.8181 70.3211 18.0554Z" fill="#1D545D"/>
<path d="M132.887 5.36397C132.788 5.76102 132.731 6.01382 132.659 6.26353C132.214 7.81139 132.214 7.81139 130.641 7.90289C129.191 7.98665 128.251 9.00097 128.237 10.5985C128.211 13.5174 128.228 16.4378 128.228 19.3567C128.228 19.7103 128.228 20.0624 128.228 20.4657C127.394 20.4657 126.656 20.4657 125.833 20.4657C125.815 20.0919 125.785 19.7429 125.784 19.3955C125.779 16.5743 125.781 13.7531 125.782 10.9319C125.784 7.33524 127.768 5.36862 131.397 5.36397C131.851 5.36242 132.307 5.36397 132.887 5.36397Z" fill="#1D545D"/>
</svg>
