<svg width="692" height="532" viewBox="0 0 692 532" fill="none" xmlns="http://www.w3.org/2000/svg">
<path d="M279.888 217.223C288.359 214.732 298.031 214.987 305.198 220.443C309.583 223.786 312.642 228.739 315.476 233.648C316.75 235.862 318.032 238.193 318.287 240.786C318.768 245.702 315.301 250.277 311.127 252.345C306.954 254.414 302.205 254.538 297.609 254.618C284.425 254.858 270.135 256.934 257.017 255.397C254.519 255.106 251.918 254.501 250.01 252.731C238.247 241.871 272.407 219.423 279.888 217.223Z" fill="#1D545D"/>
<path d="M280.434 219.197C286.734 217.456 293.967 217.223 299.998 220.071C306.51 223.145 310.341 229.62 313.64 235.716C315.257 238.71 316.379 241.747 314.813 245.01C313.473 247.8 310.865 249.694 307.981 250.641C304.638 251.733 301.091 251.733 297.609 251.799C293.632 251.872 289.663 252.068 285.693 252.301C277.965 252.746 270.186 253.336 262.443 252.826C259.566 252.636 256.121 252.644 253.514 251.282C251.889 250.429 251.117 249.395 250.892 248.121C250.862 247.946 250.804 247.465 250.877 246.722C250.848 247.013 251.161 245.579 251.285 245.207C251.736 243.889 252.691 242.33 253.652 240.997C255.895 237.894 258.794 235.214 261.708 232.745C265.226 229.766 268.999 227.071 272.917 224.645C274.527 223.647 276.173 222.693 277.856 221.812C278.511 221.47 279.174 221.142 279.844 220.836C280.689 220.457 279.203 221.091 279.983 220.778C280.245 220.676 280.514 220.581 280.784 220.494C284.935 219.19 283.187 212.678 278.977 213.946C275.671 214.936 272.56 216.801 269.647 218.6C265.32 221.28 261.176 224.288 257.301 227.595C251.372 232.665 242.29 241.186 244.62 250C246.317 256.438 252.916 258.238 258.809 258.682C267.761 259.359 276.756 258.66 285.693 258.063C290.238 257.757 294.783 257.56 299.335 257.407C303.443 257.269 307.595 256.897 311.404 255.244C318.156 252.316 322.796 244.879 320.29 237.559C318.863 233.4 316.146 229.394 313.582 225.862C311.004 222.3 307.974 219.03 304.106 216.852C296.473 212.554 287.521 212.86 279.342 215.235C276.821 215.978 277.885 219.896 280.434 219.197Z" fill="#232323"/>
<path d="M429.807 376.859C434.389 387.115 444.418 394.748 455.526 396.416C460.1 397.101 464.973 396.788 469.022 394.559C472.773 392.49 475.512 388.965 477.697 385.272C481.019 379.656 483.327 372.832 481.273 366.633C479.023 359.83 471.783 355.504 464.623 355.132C457.463 354.761 450.493 357.718 444.557 361.731" fill="#232323"/>
<path d="M428.052 377.886C431.541 385.658 436.836 392.293 444.469 396.343C452.387 400.546 462.708 402.192 470.88 397.727C478.899 393.342 484.559 382.941 485.607 374.084C486.685 365.038 481.529 357.019 473.298 353.442C463.035 348.985 451.462 352.35 442.743 358.628C439.065 361.28 442.35 367.296 446.37 364.834C452.554 361.054 459.998 357.499 467.413 359.313C473.502 360.806 478.44 365.417 478.309 371.994C478.229 375.759 476.736 379.416 474.922 382.657C473.16 385.811 470.982 389.03 467.864 390.975C462.037 394.61 454.033 393.175 448.024 390.713C441.177 387.909 434.76 382.584 431.57 375.825C430.441 373.443 426.988 375.526 428.052 377.886Z" fill="#232323"/>
<path d="M646.678 159.464C657.043 160.272 666.817 165.859 673.162 174.046C680.97 184.112 681.807 196.486 679.724 208.687C675.121 235.643 663.023 260.969 651.959 285.741C646.095 298.88 640.086 311.962 634.056 325.021C629.001 335.969 624.492 347.309 618.862 357.973C613.487 368.155 606.327 376.043 596.042 381.397C585.219 387.034 573.018 389.766 560.869 390.166C531.079 391.15 503.117 378.061 477.049 365.14C473.123 363.195 469.656 369.044 473.596 371.047C498.383 383.633 524.684 395.651 552.886 397.049C577.644 398.28 605.642 390.276 620.115 368.876C626.874 358.89 630.975 347.229 635.964 336.318C642.228 322.632 648.477 308.946 654.603 295.195C666.395 268.697 679.287 241.66 684.677 212.969C687.336 198.81 687.161 183.922 678.056 172.028C670.547 162.217 659.068 155.88 646.664 155.392C644.034 155.29 644.092 159.267 646.678 159.464Z" fill="#232323"/>
<path d="M501.434 264.086C462.467 275.434 424.468 281.924 399.398 302.966C382.405 317.228 371.297 338.299 369.127 360.376C368.384 367.959 368.661 375.723 370.773 383.043C373.125 391.201 377.656 398.543 382.128 405.761C389.062 416.941 395.057 429.236 402.457 440.001C410.898 452.282 418.219 462.639 417.694 478.401C417.41 486.886 415.021 495.153 414.03 503.58C413.725 506.203 413.579 508.992 414.766 511.352C415.953 513.712 418.932 515.358 421.314 514.229C422.363 513.734 423.135 512.801 423.871 511.898C439.552 492.589 455.241 473.273 470.923 453.964C474.747 449.259 478.811 443.614 477.478 437.7C476.845 434.881 475.046 432.477 473.123 430.329C461.44 417.254 443.347 409.432 436.391 393.342C425.393 367.915 458.657 351.818 477.202 342.735C493.073 334.964 522.135 336.012 529.797 320.083C534.677 309.937 554.052 305.202 553.258 293.978" fill="white"/>
<path d="M500.728 261.53C476.161 268.595 450.763 273.642 427.098 283.541C416.668 287.904 406.704 293.279 397.941 300.483C388.917 307.905 381.444 317.293 376.032 327.636C370.562 338.088 367.153 349.538 366.126 361.287C365.522 368.206 365.82 375.286 367.488 382.052C369.033 388.287 371.873 394.143 375.056 399.686C378.472 405.63 382.187 411.391 385.574 417.356C388.866 423.154 392.071 429.003 395.56 434.684C401.663 444.626 409.726 453.811 413.121 465.166C417.083 478.423 412.276 491.133 411.045 504.367C410.535 509.859 412.363 516.655 418.816 517.397C421.344 517.689 423.543 516.604 425.226 514.739C427.651 512.066 429.822 509.116 432.094 506.312C441.381 494.876 450.668 483.441 459.955 472.006C464.638 466.237 469.409 460.534 473.997 454.692C477.617 450.089 481.201 444.648 480.502 438.501C479.832 432.637 475.257 428.071 471.157 424.218C467.304 420.59 463.101 417.356 458.949 414.079C450.923 407.749 442.015 400.764 438.446 390.786C432.007 372.773 450.901 360.078 464.347 352.575C471.543 348.562 478.979 344.52 486.933 342.247C495.929 339.676 505.259 338.35 514.109 335.262C518.056 333.886 521.968 332.181 525.333 329.676C528.88 327.039 530.781 323.914 533.075 320.265C537.496 313.229 546.521 310.265 552.005 304.183C554.591 301.313 556.274 297.904 556.092 293.971C555.924 290.322 550.228 290.3 550.396 293.971C550.556 297.511 548.123 300.075 545.596 302.245C542.42 304.969 538.8 307.133 535.472 309.66C532.369 312.013 529.324 314.657 527.445 318.131C525.624 321.503 523.432 324.045 520.132 326.063C512.79 330.557 503.875 332.159 495.601 334.06C491.223 335.066 486.839 336.071 482.57 337.469C478.746 338.722 475.17 340.463 471.579 342.255C463.99 346.035 456.444 350.041 449.597 355.081C443.027 359.917 436.698 365.773 433.442 373.421C429.866 381.819 431.271 390.786 435.795 398.543C440.951 407.392 449.24 413.7 457.15 419.935C461.2 423.132 465.235 426.366 468.877 430.03C473.109 434.298 476.481 438.719 473.633 444.823C470.829 450.839 465.592 455.953 461.44 461.066C457.005 466.528 452.562 471.991 448.126 477.454C443.69 482.917 439.247 488.379 434.811 493.842C430.346 499.341 426.064 505.095 421.358 510.391C420.637 511.199 420.098 511.949 418.947 511.556C417.877 511.185 417.28 510.128 416.974 509.123C416.041 506.108 417.046 502.218 417.549 499.217C418.663 492.618 420.178 486.049 420.528 479.34C421.111 467.927 417.236 457.526 411.256 447.984C408.131 443.002 404.628 438.275 401.503 433.293C397.963 427.648 394.744 421.814 391.466 416.016C385.29 405.076 377.066 394.471 373.548 382.271C370.11 370.348 371.502 357.193 374.983 345.43C381.415 323.667 396.368 305.96 416.107 295.027C437.062 283.424 460.989 277.962 483.925 271.741C490 270.095 496.074 268.413 502.12 266.643C505.412 265.689 504.021 260.583 500.728 261.53Z" fill="#232323"/>
<path d="M591.927 267.131C595.977 289.091 591.665 308.961 576.384 325.954C562.931 340.915 544.503 350.485 525.748 357.776C506.431 365.286 486.299 370.727 465.832 373.975C461.251 374.704 456.524 375.359 452.518 377.712C449.823 379.292 447.609 381.557 445.431 383.801C416.77 413.234 390.155 444.226 359.666 471.569C349.76 480.455 339.665 489.137 329.489 497.732C326.073 500.616 320.21 507.965 315.731 509.065C310.494 510.347 306.233 506.043 302.205 503.195C283.238 489.8 266.18 473.9 251.685 456.018C249.595 453.44 247.519 450.745 246.558 447.591C245.596 444.437 245.975 440.708 248.342 438.341C249.828 436.848 251.926 436.054 254.031 435.675C266.296 433.497 277.36 444.219 289.815 444.292C307.129 444.394 320.123 427.051 328.484 414.625C339.104 398.842 350.481 383.408 364.24 370.086C403.623 331.97 440.238 307.432 495.375 300.41" fill="white"/>
<path d="M589.808 267.721C591.949 279.819 591.585 292.303 587.288 303.906C582.845 315.903 574.323 325.859 564.446 333.784C554.365 341.876 542.704 347.943 530.803 352.874C517.583 358.352 503.89 362.758 490 366.174C482.833 367.937 475.6 369.445 468.324 370.668C461.579 371.805 454.601 372.402 448.949 376.634C443.501 380.705 438.985 386.234 434.294 391.135C429.254 396.409 424.257 401.726 419.261 407.043C399.449 428.151 379.71 449.39 358.18 468.765C352.637 473.747 347.029 478.656 341.384 483.529C336.059 488.125 330.334 492.444 325.331 497.375C323.568 499.109 321.878 500.915 320.05 502.59C318.462 504.04 316.51 505.955 314.267 506.174C311.696 506.421 309.263 504.564 307.311 503.136C304.703 501.235 302.096 499.327 299.495 497.404C288.402 489.217 277.994 480.076 268.401 470.178C263.733 465.363 259.253 460.359 254.992 455.181C252.166 451.743 245.283 443.199 251.853 439.681C256.82 437.023 263.368 439.237 268.205 441.094C273.595 443.17 278.832 445.865 284.549 446.943C295.861 449.07 306.269 444.102 314.544 436.673C322.927 429.142 328.951 419.549 335.302 410.357C343.11 399.06 351.421 388.098 360.868 378.105C369.484 368.986 378.902 360.486 388.502 352.408C397.249 345.044 406.405 338.154 416.063 332.029C435.146 319.93 456.08 311.263 478.171 306.477C484.136 305.188 490.131 304.088 496.176 303.236C499.41 302.777 498.682 297.096 495.397 297.482C471.222 300.323 447.886 307.169 426.355 318.605C405.218 329.822 386.397 344.928 368.952 361.2C358.5 370.945 348.93 381.288 340.24 392.636C332.556 402.673 326.103 413.664 318.127 423.453C311.441 431.662 302.46 440.497 291.221 441.043C279.087 441.633 269.144 431.917 256.981 432.208C250.374 432.361 243.972 435.559 243.069 442.675C242.224 449.347 246.66 454.729 250.629 459.566C259.523 470.404 269.348 480.484 279.932 489.669C285.445 494.454 291.177 499.007 297.077 503.318C301.732 506.72 306.859 511.826 312.868 512.35C318.491 512.846 322.789 508.716 326.489 505.045C331.012 500.565 335.783 496.486 340.619 492.349C352.477 482.196 364.24 471.911 375.486 461.08C386.186 450.774 396.485 440.06 406.667 429.244C417.083 418.18 427.375 406.992 437.834 395.965C440.187 393.481 442.547 391.012 444.921 388.55C447.543 385.833 450.107 382.759 453.283 380.669C459.168 376.816 467.296 376.728 474.041 375.468C489.169 372.642 504.064 368.578 518.544 363.37C531.284 358.789 543.892 353.464 555.436 346.334C566.733 339.356 577.112 330.514 584.534 319.413C591.315 309.282 595.067 297.475 595.569 285.311C595.824 279.018 595.198 272.732 594.069 266.541C593.537 263.766 589.32 264.953 589.808 267.721Z" fill="#232323"/>
<path d="M505.696 260.321C489.533 262.047 473.524 265.194 457.908 269.709C443.471 273.883 429.312 279.251 416.143 286.549C412.793 288.407 399.58 294.19 400.563 298.8C401.241 301.983 405.414 302.377 407.862 303.222C410.986 304.292 413.885 306.019 416.274 308.291C420.644 312.443 423.347 317.082 423.492 323.106C433.267 316.128 444.134 311.889 456.167 317.476C460.464 319.471 463.99 322.858 466.801 326.675C473.852 336.26 476.598 348.657 475.41 360.5C474.58 368.804 471.892 376.845 468.003 384.201C465.308 389.3 459.437 397.501 469.103 397.13C486.307 396.467 504.144 390.757 518.799 381.827C534.721 372.118 574.832 346.567 594.892 288.297" fill="#1D545D"/>
<path d="M438.649 300.789C433.449 299.871 427.928 300.242 423.15 302.493C420.411 303.79 417.949 305.749 416.114 308.153C416.165 308.203 416.216 308.247 416.267 308.291C418.816 310.716 420.804 313.309 422.043 316.245C423.317 319.26 427.25 319.988 429.428 317.548C432.218 314.424 434.097 312.399 440.252 313.528C441.097 309.558 449.422 306.958 446.487 304.212C444.382 302.231 441.497 301.291 438.649 300.789Z" fill="white"/>
<path d="M439.444 297.919C430.121 296.397 420.156 298.334 414.016 306.048C413.055 307.249 412.713 309.085 414.016 310.258C416.668 312.639 417.971 315.363 419.77 318.321C421.198 320.666 423.798 322.101 426.552 321.962C429.531 321.817 431.118 319.93 433.07 318C434.942 316.15 436.902 315.975 439.465 316.398C441.061 316.66 442.656 315.997 443.129 314.315C443.544 312.843 445.373 311.758 446.501 310.833C447.893 309.697 449.444 308.429 449.925 306.608C451.374 301.189 443.304 298.655 439.444 297.919C435.7 297.205 434.097 302.945 437.863 303.659C440.019 304.074 441.876 304.693 443.77 305.793C444.615 306.281 444.018 306.354 444.207 305.873C444.229 305.815 444.251 304.715 444.353 304.751C444.302 304.737 442.954 306.077 442.882 306.142C440.638 308.029 438.227 309.762 437.39 312.727C438.613 312.035 439.83 311.343 441.053 310.644C435.649 309.755 431.672 310.753 427.914 314.781C425.823 317.024 425.088 315.48 423.944 313.295C422.531 310.6 420.492 308.072 418.226 306.04C418.226 307.446 418.226 308.845 418.226 310.25C423.004 304.249 430.485 302.449 437.863 303.651C441.607 304.27 443.224 298.538 439.444 297.919Z" fill="white"/>
<path d="M468.046 281.56C469.678 280.722 471.2 279.637 472.365 278.217C474.587 275.507 475.301 271.785 474.871 268.311C474.754 267.364 474.558 266.432 474.295 265.514C468.789 266.745 463.326 268.143 457.907 269.709C452.925 271.151 447.972 272.739 443.085 274.495C445.132 277.831 448.191 280.547 451.789 282.099C456.924 284.32 463.057 284.124 468.046 281.56Z" fill="white"/>
<path d="M469.547 284.131C476.888 280.161 479.176 272.55 477.165 264.72C476.75 263.11 475.053 262.287 473.502 262.637C462.933 265.026 452.495 267.976 442.284 271.618C440.558 272.229 439.399 274.269 440.507 275.995C446.836 285.85 459.007 289.251 469.547 284.131C472.992 282.456 469.976 277.321 466.538 278.989C458.993 282.652 450.136 279.979 445.642 272.987C445.052 274.444 444.454 275.9 443.864 277.364C454.076 273.723 464.506 270.773 475.082 268.384C473.858 267.692 472.642 267 471.418 266.301C472.788 271.618 471.528 276.286 466.538 278.989C463.173 280.817 466.174 285.959 469.547 284.131Z" fill="white"/>
<path d="M489.984 378.192C488.025 374.019 484.762 370.377 480.588 368.403C478.658 367.492 476.531 366.968 474.405 366.873C473.108 372.911 470.887 378.746 468.002 384.201C465.307 389.3 459.437 397.501 469.102 397.13C476.582 396.838 484.179 395.6 491.587 393.553C492.708 388.433 492.22 382.941 489.984 378.192Z" fill="white"/>
<path d="M492.555 376.685C489.022 369.474 482.518 364.455 474.404 363.894C473.166 363.807 471.804 364.878 471.534 366.08C470.143 372.343 467.87 378.309 464.76 383.924C463.02 387.071 460.587 390.662 460.798 394.42C461.104 399.788 466.8 400.262 470.973 400.014C478.213 399.584 485.38 398.317 492.373 396.423C493.32 396.168 494.252 395.338 494.456 394.34C495.672 388.258 495.082 382.366 492.555 376.685C491.003 373.188 485.868 376.218 487.413 379.693C489.241 383.808 489.59 388.375 488.709 392.767C489.401 392.075 490.093 391.383 490.792 390.684C484.914 392.279 478.927 393.444 472.852 393.932C470.74 394.1 468.686 394.26 466.625 393.903C466.246 393.838 466.771 393.51 466.793 394.289C466.785 394.1 466.793 393.961 466.734 394.071C466.924 393.736 466.938 392.898 467.084 392.468C468.125 389.402 470.15 386.641 471.571 383.742C474.091 378.615 476.035 373.239 477.274 367.667C476.32 368.396 475.358 369.124 474.404 369.852C480.442 370.275 484.856 374.47 487.413 379.693C489.102 383.131 494.237 380.115 492.555 376.685Z" fill="white"/>
<path d="M571.526 280.977C564.839 286.185 561.62 294.576 565.655 303.025C567.935 307.795 571.045 312.297 575.357 315.349C577.207 316.652 579.297 317.665 581.475 318.277C586.472 309.405 591.046 299.456 594.884 288.304L571.526 280.977Z" fill="white"/>
<path d="M569.421 278.865C562.596 284.371 558.998 293.359 561.992 301.896C565.029 310.564 571.759 318.423 580.682 321.147C581.92 321.525 583.413 320.899 584.047 319.777C589.531 309.981 594.076 299.696 597.754 289.091C598.293 287.533 597.128 285.886 595.671 285.428C587.885 282.988 580.099 280.54 572.313 278.1C568.649 276.949 567.083 282.696 570.732 283.84C578.518 286.28 586.305 288.727 594.091 291.167C593.399 289.943 592.707 288.727 592.008 287.503C588.49 297.635 584.141 307.41 578.897 316.769C580.019 316.31 581.14 315.859 582.262 315.4C575.386 313.302 570.113 306.951 567.731 300.308C565.328 293.622 568.358 287.321 573.624 283.075C576.617 280.671 572.378 276.483 569.421 278.865Z" fill="white"/>
<path d="M505.696 257.917C481.303 260.503 456.925 265.914 434.149 275.136C425.394 278.683 416.93 282.936 408.634 287.445C403.951 289.987 393.295 296.316 399.726 302.639C401.314 304.197 403.535 304.824 405.611 305.406C408.182 306.128 410.579 307.242 412.713 308.866C417.258 312.326 420.455 317.337 420.688 323.113C420.769 325.072 423.07 326.82 424.906 325.531C434.797 318.59 447.223 314.3 458.112 321.955C467.763 328.736 472.279 341.861 472.672 353.202C472.89 359.568 471.885 365.854 469.948 371.914C468.287 377.107 465.789 381.776 463.225 386.554C461.63 389.525 459.547 393.619 461.397 396.94C463.83 401.31 470.108 400.269 474.194 399.89C508.114 396.744 539.114 375.927 561.715 351.286C578.132 333.383 590.449 312.246 597.951 289.149C599.226 285.216 593.224 283.679 591.825 287.459C584.454 307.453 574.104 326.595 560.287 342.881C550.746 354.134 539.689 364.04 527.54 372.402C512.433 382.788 495.987 390.764 477.625 393.306C474.813 393.692 471.944 393.998 469.103 394.056C468.193 394.078 467.318 393.765 466.503 393.728C466.728 393.735 466.881 394.267 466.881 394.267C466.918 393.786 466.641 394.202 466.83 393.743C468.193 390.436 469.846 387.377 471.448 384.157C477.006 372.97 479.817 360.413 478.164 347.943C476.532 335.641 470.363 321.948 459.037 315.698C446.516 308.793 433.027 312.923 422.08 320.695C423.485 321.503 424.891 322.305 426.297 323.113C425.867 313.593 419.465 305.202 410.783 301.451C409.013 300.687 407.192 300.279 405.378 299.674C404.759 299.47 404.053 299.259 403.565 298.807C403.011 298.298 403.259 298.268 403.317 298.072C403.586 297.096 405.014 296.127 405.75 295.559C407.257 294.394 408.925 293.418 410.579 292.485C428.074 282.623 446.524 275.216 465.949 270.124C479.001 266.701 492.287 264.239 505.696 262.746C508.733 262.389 508.784 257.589 505.696 257.917Z" fill="#232323"/>
<path d="M567.388 161.962C553.243 158.546 523.897 167.891 510.051 172.363C496.824 176.639 483.597 180.914 470.37 185.19C454.411 190.346 439.72 193.646 422.953 191.293C406.15 188.933 389.441 185.539 372.667 182.917C354.37 180.055 335.571 175.422 317.121 174.796C301.294 174.257 282.029 175.866 269.996 188.081C265.466 192.677 262.348 199.196 262.348 205.904C262.348 209.888 263.608 211.039 260.928 214.157C258.393 217.107 256.099 220.268 254.11 223.647C252.828 225.832 251.692 228.753 253.149 230.829C254.329 232.512 256.762 232.715 258.59 231.914C260.425 231.113 261.838 229.554 263.302 228.149C273.376 218.49 288.438 214.943 301.534 219.139C302.853 219.561 304.419 220.464 304.28 221.899C304.215 222.598 303.734 223.167 303.268 223.676C299.881 227.398 296.123 230.967 294.178 235.694C290.092 245.6 309.488 237.268 314.208 237.676C342.323 240.116 370.401 243.095 398.487 245.935C414.817 247.589 431.242 249.242 447.615 248.12C479.547 245.935 510.51 232.956 535.027 212.379" fill="white"/>
<path d="M567.985 159.799C559.558 157.701 550.417 159.114 542.041 160.724C532.791 162.494 523.723 165.028 514.734 167.825C503.19 171.416 491.696 175.167 480.188 178.853C467.901 182.786 455.555 187.178 442.648 188.467C429.443 189.793 416.456 187.207 403.491 184.957C389.769 182.575 376.01 180.375 362.309 177.891C338.951 173.66 314.193 168.117 290.565 173.696C280.273 176.122 270.222 181.074 264.074 189.982C260.892 194.6 258.947 200.274 258.976 205.904C258.983 207.332 259.646 209.422 259.209 210.792C258.845 211.935 257.585 212.948 256.849 213.873C255.742 215.271 254.671 216.699 253.666 218.17C250.702 222.497 246.492 229.351 251.525 233.859C256.383 238.207 261.933 233.925 265.589 230.436C273.172 223.203 283.813 219.612 294.236 220.749C295.438 220.88 296.632 221.091 297.812 221.368C298.708 221.572 300.187 222.373 301.097 222.329C301.214 222.409 301.338 222.482 301.454 222.562C301.352 221.302 301.039 221.135 300.515 222.06C300.15 222.307 299.75 222.89 299.429 223.232C298.344 224.405 297.252 225.578 296.225 226.801C293.624 229.904 290.179 234.216 290.529 238.55C291.155 246.3 302.219 243.291 306.837 242.206C309.386 241.609 312.088 240.771 314.201 240.815C321.033 240.953 327.989 242.046 334.792 242.687C348.842 244.02 362.885 245.447 376.928 246.882C403.637 249.614 430.761 253.955 457.594 250.313C481.026 247.13 503.656 238.353 523.286 225.184C528.136 221.928 532.791 218.396 537.277 214.652C540.431 212.023 535.901 207.536 532.769 210.143C515.23 224.776 494.428 235.447 472.263 240.99C460.639 243.896 448.774 245.273 436.799 245.287C423.492 245.309 410.243 243.896 397.016 242.607C370.394 240.014 343.794 237.159 317.143 234.813C313.844 234.522 311.112 234.777 307.893 235.527C304.878 236.226 301.833 237.151 298.737 237.392C298.111 237.443 297.463 237.479 296.844 237.428C296.625 237.406 296.254 237.319 296.254 237.319C296.276 236.896 296.487 237.931 296.742 238.12C296.858 238.207 296.851 237.931 296.698 238.135C296.844 237.931 296.931 237.21 297.019 236.969C298.905 231.783 303.887 228.972 306.604 224.434C309.962 218.811 302.984 216.051 298.752 215.169C293.785 214.128 288.752 214.018 283.74 214.769C278.54 215.548 273.478 217.332 268.918 219.955C266.828 221.156 264.861 222.569 263.004 224.099C261.299 225.505 259.304 228.433 257.089 229.001C254.198 229.751 256.835 225.512 257.424 224.543C259.078 221.834 260.964 219.306 262.997 216.866C264.468 215.104 265.713 213.407 265.939 211.054C266.158 208.811 265.597 206.567 265.786 204.302C266.689 193.675 275.656 186.1 284.913 182.254C294.003 178.481 304.251 177.826 313.982 177.957C326.517 178.125 338.87 180.149 351.173 182.385C364.152 184.745 377.183 186.828 390.177 189.116C403.091 191.381 416.259 194.418 429.37 195.132C441.315 195.787 453.18 193.566 464.594 190.194C477.02 186.523 489.285 182.225 501.602 178.197C519.301 172.407 537.328 165.786 555.967 163.892C559.551 163.528 563.236 163.382 566.784 164.125C569.595 164.715 570.811 160.505 567.985 159.799Z" fill="#232323"/>
<path d="M281.512 196.363C272.393 200.34 263.842 205.89 257.425 213.582C254.97 216.531 259.071 220.792 261.7 217.857C268.066 210.755 275.212 204.528 283.974 200.58C286.851 199.291 284.353 195.125 281.512 196.363Z" fill="#232323"/>
<path d="M584.301 113.089C577.498 114.771 572.603 120.605 566.463 123.978C565.356 124.582 564.176 125.121 562.924 125.245C561.671 125.369 560.316 125.034 559.449 124.116C558.881 123.511 558.568 122.718 558.291 121.931C556.201 115.893 555.844 109.272 557.279 103.044C557.927 100.233 559.223 97.1883 561.918 96.1686C563.025 95.7462 564.242 95.7316 565.422 95.819C571.482 96.2633 577.287 99.4463 580.914 104.319" fill="#232323"/>
<path d="M583.58 110.474C578.095 111.741 573.776 115.164 569.282 118.347C567.927 119.309 564.351 122.404 562.545 121.88C560.709 121.348 560.265 115.121 560.134 113.467C559.85 110.015 559.311 99.4827 564.54 99.3152C570.36 99.1331 574.788 102.79 578.525 106.723C581.162 109.498 585.911 105.9 583.857 102.607C579.887 96.2415 571.132 91.8203 563.652 92.2646C554.474 92.8109 552.741 103.911 552.828 111.195C552.879 115.492 553.498 120.649 555.509 124.517C557.57 128.486 562.006 129.455 565.99 127.838C573.04 124.976 577.687 117.983 585.037 115.703C588.351 114.662 586.981 109.687 583.58 110.474Z" fill="#232323"/>
<path d="M532.724 184.032C520.014 200.274 513.699 222.002 507.078 240.888C506.306 243.095 505.505 245.338 504.026 247.188C500.814 251.202 494.681 252.994 492.933 257.757C490.887 263.329 496.16 268.792 501.229 272.171C518.936 283.978 541.486 290.242 562.376 292.995C576.892 294.911 593.339 294.314 603.842 284.117C612.232 275.973 614.833 263.256 613.383 251.653C611.941 240.116 606.056 230.924 602.756 220.1C599.763 210.275 600.906 199.459 597.694 189.553C593.149 175.539 591.904 171.89 578.283 165.094" fill="white"/>
<path d="M531.063 182.371C523.328 192.284 517.814 203.282 513.24 214.951C510.953 220.785 508.921 226.714 506.882 232.643C505.053 237.96 503.881 244.202 499.176 247.742C495.082 250.83 490.26 253.518 489.619 259.148C488.942 265.092 493.436 270.037 497.828 273.38C507.967 281.101 520.553 286.134 532.659 289.805C544.662 293.447 557.343 296.069 569.885 296.797C581.102 297.453 593.339 296.076 602.625 289.193C612.116 282.157 616.545 270.715 616.909 259.155C617.105 252.979 616.086 246.81 614.155 240.954C612.174 234.923 609.377 229.205 607.207 223.24C604.65 216.204 604.031 209.146 603.259 201.76C602.538 194.87 600.943 188.446 598.568 181.949C597.075 177.862 595.298 173.864 592.29 170.652C588.888 167.01 584.241 164.635 579.82 162.494C576.361 160.819 573.316 165.888 576.783 167.694C583.484 171.191 588.939 174.883 591.751 182.131C593.543 186.749 595.182 191.578 596.056 196.458C597.148 202.576 597.272 208.825 598.299 214.958C600.258 226.641 607.025 236.758 609.603 248.266C611.883 258.449 610.688 270.358 604.308 278.901C597.898 287.489 586.995 290.424 576.747 290.73C565.559 291.065 554.218 288.989 543.373 286.382C531.632 283.563 520.094 279.557 509.511 273.694C504.813 271.093 498.739 268.034 496.204 263.016C493.662 257.997 498.695 255.317 502.133 252.768C504.427 251.071 506.452 249.228 507.821 246.679C509.227 244.056 510.072 241.107 511.033 238.302C513.087 232.293 515.105 226.277 517.254 220.297C521.653 208.046 526.773 195.591 534.764 185.197C536.366 183.121 532.702 180.266 531.063 182.371Z" fill="#232323"/>
<path d="M570.658 174.672C573.579 171.095 574.62 166.07 573.367 161.627C573.156 160.869 572.872 160.112 572.377 159.507C570.68 157.417 566.397 159.005 564.161 159.347C560.81 159.871 557.467 160.49 554.153 161.204C552.39 161.583 550.591 162.005 549.069 162.974C547.532 163.95 546.381 165.421 545.296 166.893C544.102 168.517 542.871 170.382 541.574 171.911C541.21 172.341 539.462 173.499 539.593 174.074C539.892 175.378 543.628 175.757 544.626 175.75" fill="white"/>
<path d="M572.102 176.107C574.476 173.295 576.101 170.681 576.574 166.951C576.96 163.9 576.632 159.828 574.44 157.439C572.371 155.188 569.196 155.414 566.464 155.939C563.026 156.594 559.574 157.257 556.143 157.956C552.72 158.655 549.246 159.18 546.412 161.387C543.375 163.754 541.911 167.345 539.245 170.018C537.424 171.846 535.37 173.915 537.643 176.471C539.267 178.299 542.348 178.664 544.642 178.707C548.474 178.78 548.474 172.829 544.642 172.749C544.162 172.742 543.681 172.706 543.207 172.625C542.843 172.56 542.479 172.472 542.115 172.37C541.773 172.232 541.794 172.29 542.181 172.553C542.282 173.317 542.377 174.082 542.479 174.847C542.348 175.604 543.106 174.577 543.462 174.221C544.125 173.55 544.686 172.771 545.254 172.014C546.616 170.2 547.803 168.175 549.355 166.507C552.159 163.492 557.454 163.288 561.271 162.639C563.208 162.312 565.146 162.02 567.076 161.627C568.067 161.423 569.531 160.942 570.303 161.605C571.468 162.603 571.184 166.412 571.009 167.738C570.74 169.748 570.084 171.963 568.919 173.623C567.586 175.524 570.609 177.877 572.102 176.107Z" fill="#232323"/>
<path d="M569.399 167.104C572.421 167.104 572.429 162.406 569.399 162.406C566.376 162.399 566.369 167.104 569.399 167.104Z" fill="#232323"/>
<path d="M553.818 185.35C556.003 175.706 559.325 166.019 562.938 156.878C563.462 155.552 563.863 154.139 563.724 152.726C563.418 149.711 560.031 148.043 558.291 145.85C556.375 143.432 555.093 140.482 554.714 137.416C553.869 130.606 556.943 123.701 561.758 118.814C563.724 116.811 565.96 115.113 568.357 113.664C576.405 108.784 586.69 109.33 593.995 115.259C598.89 119.236 602.182 125.391 598.037 134.619C595.896 139.39 593.449 143.986 590.601 148.371C588.226 152.034 586.085 155.436 585.269 159.791C585 161.255 584.832 162.741 584.708 164.22C584.57 165.837 584.912 167.993 583.674 169.216C582.246 170.622 579.581 171.54 577.782 172.37" fill="white"/>
<path d="M556.114 185.976C557.818 179.814 559.821 173.696 562.014 167.687C563.026 164.904 564.097 162.144 565.226 159.405C566.326 156.717 567.498 153.891 566.61 150.949C565.969 148.837 564.461 147.241 562.88 145.777C560.79 143.84 559.268 141.793 558.481 138.996C557.046 133.883 558.751 128.471 561.701 124.225C567.484 115.9 578.817 110.954 588.366 115.74C591.928 117.524 595.293 120.481 596.218 124.502C597.42 129.717 594.156 135.085 591.811 139.492C588.796 145.158 584.455 150.33 582.532 156.521C581.636 159.391 581.301 162.53 581.228 165.523C581.192 167.009 581.199 167.017 579.786 167.774C578.584 168.415 577.317 168.91 576.078 169.471C572.116 171.27 575.561 177.024 579.48 175.298C581.862 174.249 584.484 173.375 586.283 171.394C588.417 169.041 587.951 165.822 588.286 162.901C589.051 156.237 592.984 151.444 596.232 145.807C599.495 140.14 603.334 133.585 603.392 126.854C603.436 121.749 601.091 117 597.347 113.591C588.155 105.207 574.491 105.003 564.505 112.061C554.402 119.199 547.221 132.747 553.586 144.721C555.167 147.7 557.549 149.31 559.719 151.743C560.746 152.894 560.659 153.746 560.236 155.253C559.661 157.293 558.772 159.281 558.066 161.284C555.356 168.976 553.026 176.697 551.532 184.723C550.986 187.68 555.284 188.962 556.114 185.976Z" fill="#232323"/>
<path d="M563.325 102.404C565.269 110.809 571.519 118.093 579.531 121.29C582.073 122.303 585.19 123.359 585.802 126.032C586.079 127.241 585.729 128.487 585.387 129.681C584.659 132.209 583.923 134.743 583.195 137.271C584.491 135.719 585.569 133.971 587.091 132.638C588.606 131.305 590.733 130.417 592.656 131.036C594.987 131.793 596.189 134.539 595.977 136.987C595.766 139.427 594.492 141.634 593.239 143.746C592.598 144.831 588.351 150.272 591.913 149.791C597.019 149.099 600.908 144.991 604.106 140.956C607.26 136.965 610.188 132.799 612.854 128.465C613.618 127.219 614.398 125.762 613.961 124.364C613.356 122.434 610.923 121.902 608.913 121.698C610.967 120.023 610.712 116.789 609.765 114.313C607.639 108.748 603.013 104.88 598.876 100.852C594.484 96.5768 588.701 94.0785 583.027 91.9881C579.771 90.7936 576.443 89.6865 572.983 89.366C569.523 89.0455 565.903 89.5845 562.982 91.4637C561.03 92.7165 559.479 94.5156 558.182 96.4385C556.675 98.6745 555.473 101.107 554.628 103.664C553.878 105.914 553.397 108.282 553.565 110.642C553.834 114.546 555.815 118.093 557.745 121.494C558.03 121.99 558.357 122.529 558.896 122.725" fill="#232323"/>
<path d="M561.54 102.892C563.04 109.644 566.929 115.747 572.458 119.913C575.24 122.011 578.321 123.016 581.344 124.619C583.493 125.762 583.609 126.702 583.005 129.011C582.342 131.553 581.504 134.066 580.761 136.586C580.084 138.88 583.347 141.058 584.993 139.048C586.355 137.372 592.189 129.615 593.325 135.646C593.864 138.516 591.512 141.51 590.026 143.76C588.766 145.661 587.04 148.291 588.227 150.614C589.698 153.491 593.551 152.435 595.897 151.466C603.064 148.516 607.915 140.898 612.161 134.787C614.288 131.728 617.973 127.634 616.823 123.57C615.817 120.045 612.117 119.083 608.927 118.683C609.634 120.394 610.347 122.106 611.054 123.818C616.648 118.508 611.731 110.051 607.754 105.448C602.889 99.8106 597.135 94.8213 590.31 91.7548C583.412 88.652 575.488 85.4253 567.796 86.6199C559.857 87.8508 554.897 94.5081 552.122 101.573C550.461 105.79 549.842 110.335 551.102 114.749C552.1 118.231 554.059 123.519 557.264 125.515C560.804 127.722 564.052 122.128 560.527 119.928C559.711 119.418 558.546 116.272 558.153 115.398C557.468 113.897 556.893 112.287 556.725 110.634C556.339 106.803 557.971 102.731 559.85 99.4755C561.627 96.3945 563.87 93.7069 567.41 92.709C571.096 91.6674 574.985 92.4249 578.554 93.5466C585.539 95.7317 592.291 98.667 597.608 103.802C600.07 106.176 602.692 108.507 604.681 111.311C605.948 113.111 608.913 117.495 606.8 119.564C604.775 121.545 606.472 124.437 608.927 124.699C609.379 124.75 610.216 124.757 610.61 125.041C611.389 125.602 611.098 125.646 610.588 126.6C609.677 128.304 608.548 129.929 607.485 131.538C605.518 134.51 603.45 137.438 601.185 140.198C599.145 142.668 596.822 145.231 593.799 146.484C593.173 146.747 592.284 146.768 591.723 147.082C590.645 147.162 591.14 147.817 593.223 149.041C593.26 148.844 593.333 148.669 593.442 148.502C594.01 147.977 594.447 146.783 594.884 146.113C597.79 141.692 600.667 135.384 596.596 130.693C594.695 128.501 591.81 127.787 589.05 128.61C585.547 129.666 583.58 132.776 581.424 135.479C582.837 136.302 584.243 137.118 585.656 137.941C586.37 135.406 587.156 132.886 587.797 130.336C588.314 128.297 588.693 126.192 587.732 124.218C586.202 121.072 582.764 120.125 579.785 118.872C572.582 115.827 567.155 109.425 565.116 101.916C564.482 99.6066 561.022 100.575 561.54 102.892Z" fill="#232323"/>
<path d="M547.097 195.096C549.566 189.56 554.293 185.059 558.131 180.448C559.807 178.431 561.518 176.384 563.718 174.956C566.377 173.223 569.567 172.502 572.691 171.941C578.293 170.928 583.959 170.302 589.641 170.062C591.032 170.003 592.452 169.974 593.77 170.411C597.463 171.642 599.015 175.918 600.078 179.669C601.156 183.456 602.227 187.251 603.305 191.039C603.407 191.388 585.438 194.972 583.799 195.234C580.456 195.766 577.098 196.21 573.726 196.567C571.176 196.836 568.292 198.3 566.202 196.101C565.022 194.862 564.519 193.144 564.053 191.497C563.274 188.722 562.494 185.882 562.647 183.005" fill="white"/>
<path d="M548.815 196.101C551.575 190.478 556.208 186.151 560.294 181.504C562.231 179.298 564.205 177.207 566.98 176.078C570.01 174.84 573.455 174.432 576.675 173.966C580.032 173.478 583.412 173.157 586.799 172.953C589.523 172.793 592.917 172.087 594.855 174.49C596.406 176.42 596.996 179.035 597.644 181.366C598.62 184.84 599.567 188.329 600.529 191.811C600.623 191.075 600.725 190.332 600.82 189.597C601.33 188.65 602.903 188.337 601.687 188.57C601.162 188.672 600.638 188.825 600.113 188.941C598.628 189.276 597.142 189.582 595.649 189.888C592.305 190.573 588.948 191.221 585.597 191.855C581.664 192.605 577.702 193.064 573.725 193.552C572.406 193.712 571.066 194.156 569.748 194.229C568.247 194.309 567.861 193.435 567.395 192.109C566.383 189.254 565.611 186.028 565.392 183.005C565.137 179.421 560.294 179.531 559.9 183.005C559.565 185.926 560.126 188.657 560.891 191.469C561.619 194.112 562.442 196.939 564.642 198.752C566.681 200.435 569.172 200.457 571.656 200.012C574.737 199.459 577.833 199.124 580.936 198.687C587.105 197.813 593.201 196.443 599.276 195.067C601.155 194.644 604.68 194.411 605.766 192.517C606.975 190.412 605.03 186.72 604.411 184.607C603.551 181.657 602.83 178.635 601.716 175.765C600.012 171.387 597.113 167.753 592.131 167.338C585.888 166.821 579.035 168.132 572.909 169.231C569.566 169.829 566.135 170.601 563.185 172.363C560.694 173.842 558.779 175.976 556.972 178.198C552.842 183.267 548.072 188.067 545.377 194.105C544.35 196.385 547.678 198.424 548.815 196.101Z" fill="#232323"/>
<path d="M636.169 173.055C662.171 196.501 683.687 228.892 688.247 263.977C690.527 281.523 688.385 300.017 679.761 315.465C676.36 321.554 671.88 327.214 665.959 330.907C655.791 337.251 642.382 336.93 631.463 331.985C620.545 327.046 611.914 318.007 605.388 307.963C576.421 263.409 574.214 200.376 578.416 149.303C578.62 146.87 579.123 144.051 581.279 142.915C583.362 141.823 586.057 142.988 587.448 144.882C588.839 146.776 589.255 149.194 589.633 151.517C593.348 146.535 596.108 140.912 599.532 135.719C602.948 130.526 607.216 125.624 612.883 123.053C613.553 122.747 614.325 122.477 615.017 122.747C616.16 123.198 616.284 124.75 616.131 125.966C615.709 129.251 614.609 132.449 612.926 135.296C615.33 130.985 618.972 127.372 623.306 125.012C624.675 124.262 626.598 123.73 627.61 124.917C628.31 125.733 628.171 126.949 627.909 127.991C627.217 130.73 625.95 133.323 624.209 135.544C625.571 132.048 628.353 129.12 631.777 127.576C633.714 126.702 636.773 126.833 637.072 128.938C637.174 129.63 636.897 130.322 636.606 130.955C635.535 133.308 634.195 135.53 632.614 137.576C634.209 134.473 636.933 131.975 640.167 130.657C641.478 130.125 643.161 129.856 644.144 130.861C645.135 131.873 644.822 133.541 644.348 134.874C643.175 138.174 641.442 141.247 639.971 144.43C630.801 164.322 636.489 181.045 640.102 201.352C645.171 229.795 654.043 256.679 653.919 285.864" fill="white"/>
<path d="M634.611 174.614C654.634 193.646 671.794 216.313 680.498 242.811C684.948 256.365 687.097 270.714 685.859 284.968C684.642 298.931 679.762 313.775 669.558 323.79C659.543 333.616 644.415 334.577 632.069 328.605C619.774 322.654 611.172 311.721 604.5 300.126C591.113 276.876 584.965 250.378 582.015 223.931C580.515 210.5 579.961 196.989 580.078 183.478C580.136 176.915 580.348 170.36 580.697 163.812C580.872 160.563 581.076 157.315 581.309 154.074C581.418 152.602 581.52 151.131 581.651 149.66C581.731 148.735 581.731 146.593 582.576 145.974C585.155 144.088 586.306 151.16 586.502 152.377C587.005 155.458 591.011 155.144 592.468 153.156C597.216 146.681 600.305 139.069 605.469 132.885C606.634 131.494 607.887 130.169 609.264 128.981C609.846 128.479 610.444 128.013 611.077 127.568C611.806 127.066 613.153 126.629 613.729 125.995C614.603 125.82 614.624 125.58 613.78 125.267C613.226 124.655 613.029 124.669 613.182 125.318C612.789 125.864 612.811 127.685 612.621 128.399C612.112 130.307 611.332 132.062 610.356 133.767C608.455 137.103 613.583 140.096 615.498 136.775C617.465 133.366 620.116 130.438 623.467 128.34C624.013 127.998 625.55 127.583 625.921 127.182C625.652 127.008 625.382 126.84 625.113 126.665C625.026 127.109 624.916 127.547 624.778 127.976C624.122 130.19 622.964 132.143 621.573 133.971C623.328 134.998 625.084 136.025 626.832 137.044C627.99 134.32 630.277 130.984 633.343 130.161C633.817 130.03 634.312 130.176 634.742 130.103C634.502 129.892 634.261 129.681 634.021 129.477C633.802 129.987 633.562 130.489 633.307 130.977C632.397 132.776 631.304 134.451 630.102 136.068C631.777 137.044 633.445 138.028 635.121 139.004C636.206 136.993 637.634 135.282 639.607 134.087C640.008 133.847 640.481 133.563 640.926 133.381C641.232 133.257 642.426 133.169 642.113 132.849C641.771 132.507 641.683 133.825 641.603 134.073C641.334 134.947 640.94 135.799 640.562 136.629C638.362 141.531 635.849 146.185 634.334 151.371C631.442 161.284 631.85 171.525 633.431 181.62C636.883 203.683 642.382 225.337 646.673 247.232C649.171 259.964 650.919 272.819 650.912 285.813C650.912 289.688 656.928 289.695 656.935 285.813C656.972 260.51 650.307 236.022 645.136 211.44C643.883 205.467 642.827 199.465 641.625 193.486C640.511 187.928 639.301 182.378 638.573 176.755C637.837 171.081 637.575 165.254 638.376 159.573C639.214 153.593 641.305 148.05 643.956 142.66C645.922 138.676 651.137 129.265 643.723 127.437C638.26 126.09 632.477 131.786 630.102 136.061C628.23 139.426 632.914 141.888 635.121 138.996C637.073 136.44 639.775 132.915 640.023 129.579C640.248 126.527 637.888 124.436 635.033 124.101C628.682 123.358 623.452 129.433 621.267 134.685C620.684 136.083 621.784 137.751 623.03 138.275C624.523 138.909 625.914 138.268 626.832 137.03C628.886 134.269 630.714 130.78 631.049 127.299C631.37 123.897 629.155 121.049 625.586 121.217C622.382 121.37 619.381 123.737 617.014 125.704C614.319 127.94 612.097 130.722 610.349 133.752C612.061 134.757 613.78 135.755 615.491 136.76C617.625 133.017 620.612 126.614 618.601 122.31C616.008 116.767 609.278 121.159 606.103 123.635C597.348 130.438 593.203 141.094 586.823 149.835C588.811 150.097 590.8 150.352 592.788 150.614C592.191 146.994 591.207 143.294 588.126 140.999C585.279 138.88 581.243 138.501 578.446 140.934C575.824 143.214 575.395 146.739 575.125 150.002C574.834 153.462 574.593 156.922 574.382 160.389C573.486 175.043 573.268 189.727 573.887 204.396C575.132 233.932 580.034 263.795 592.322 290.875C598.28 304.001 606.001 317.184 617.115 326.602C628.551 336.296 644.029 341.737 658.902 337.556C674.329 333.215 683.324 318.59 687.891 304.117C692.684 288.923 693.026 272.827 690.069 257.232C684.409 227.355 667.256 200.354 645.988 179.071C643.337 176.42 640.576 173.907 637.735 171.46C635.601 169.653 632.52 172.632 634.611 174.614Z" fill="#232323"/>
<path d="M547.467 172.858C549.375 177.323 548.465 182.706 549.171 187.382C549.667 190.667 554.525 189.625 554.7 186.632C554.889 183.456 554.03 179.975 553.432 176.864C552.922 174.235 552.609 171.664 550.075 170.251C548.275 169.246 546.753 171.191 547.467 172.858Z" fill="#232323"/>
<path d="M673.351 223.589C668.508 223.924 663.686 224.427 659.083 226.087C654.771 227.646 649.33 229.889 646.227 233.393C643.335 236.656 646.919 241.223 650.808 239.329C652.775 238.368 654.509 236.838 656.402 235.716C658.194 234.653 660.03 233.684 661.916 232.81C665.769 231.033 669.855 229.533 674.065 228.87C677.044 228.404 676.367 223.385 673.351 223.589Z" fill="#232323"/>
<path d="M571.898 287.838C573.69 282.74 574.666 277.364 574.79 271.96C574.819 270.736 574.79 269.476 574.295 268.362C573.836 267.349 573.027 266.548 572.262 265.754C556.115 249.031 551.103 224.208 552.24 200.988C552.487 195.875 552.269 193.595 547.542 191.832C547.032 191.643 546.471 191.453 545.968 191.65C545.4 191.869 545.116 192.495 544.89 193.07C539.843 206.137 538.656 220.523 540.382 234.42C543.069 256.14 550.572 278.246 571.643 288.21" fill="#5BC4BE"/>
<path d="M574.293 288.501C575.866 284.313 576.9 280.001 577.439 275.558C577.935 271.443 578.16 267.772 575.305 264.479C572.836 261.631 570.338 258.958 568.24 255.812C566.121 252.629 564.3 249.257 562.726 245.775C556.499 231.958 554.78 216.4 555.443 201.388C555.566 198.65 555.756 195.641 554.35 193.158C552.952 190.681 549.608 188.503 546.746 188.372C542.252 188.168 541.196 193.5 540.154 196.851C538.872 200.973 537.955 205.198 537.35 209.466C535.158 224.871 536.847 241.201 541.647 256.001C546.476 270.896 555.61 284.072 570.017 290.97C573.71 292.733 576.959 287.248 573.244 285.449C562.122 280.045 554.248 270.583 549.674 259.199C544.772 247.006 542.558 233.225 542.9 220.122C543.104 212.357 544.357 204.666 546.797 197.288C547.008 196.661 547.926 194.993 547.809 194.44C547.605 193.515 546.761 195.234 546.68 194.95C546.702 195.03 547.278 195.183 547.343 195.248C547.817 195.736 548.443 195.758 548.793 196.414C549.863 198.446 548.931 202.328 548.887 204.477C548.596 218.061 550.351 232.009 555.355 244.712C558.094 251.667 561.75 258.128 566.477 263.926C567.701 265.434 569.027 266.839 570.352 268.252C571.933 269.935 571.867 271.508 571.809 273.751C571.678 278.326 570.855 282.798 569.507 287.168C568.539 290.285 573.186 291.451 574.293 288.501Z" fill="#232323"/>
<path d="M559.28 186.42C557.335 186.668 555.223 186.879 553.584 185.626C551.516 184.046 550.926 180.739 550.503 177.767C548.763 180.098 547.349 182.779 546.33 185.67C545.842 187.054 545.448 188.518 545.507 190.004C545.594 191.985 546.563 193.85 547.983 194.76C549.403 195.671 551.224 195.598 552.63 194.571C553.308 194.075 553.876 193.391 554.444 192.713C556.104 190.718 557.765 188.715 559.433 186.719" fill="#5BC4BE"/>
<path d="M559.28 183.959C557.641 183.82 555.944 183.653 555.099 182.109C554.269 180.586 554.116 178.54 553.868 176.843C553.38 173.55 549.025 173.878 547.488 176.012C543.649 181.344 539.133 190.587 544.582 196.356C546.949 198.861 550.678 199.59 553.759 197.958C555.594 196.989 556.854 195.241 558.144 193.682C559.564 191.956 560.999 190.23 562.317 188.416C564.561 185.321 559.651 181.664 557.073 184.374C555.281 186.253 553.693 188.314 551.996 190.281C551.02 191.41 549.906 192.859 549.127 190.813C548.456 189.043 549.542 186.727 550.241 185.117C551.1 183.136 552.244 181.286 553.511 179.538C551.384 179.261 549.258 178.984 547.131 178.707C547.575 181.825 548.267 185.357 550.663 187.63C553.336 190.164 556.709 189.895 559.921 188.81C562.63 187.892 562.055 184.185 559.28 183.959Z" fill="#232323"/>
<path d="M573.573 151.248C570.244 150.614 567.535 148.873 564.629 147.286C561.839 145.756 557.855 149.026 559.953 151.962C561.562 154.22 563.645 155.538 566.209 156.529C568.678 157.483 571.024 157.293 573.573 156.849C576.37 156.376 576.326 151.772 573.573 151.248Z" fill="#232323"/>
<path d="M532.478 245.273C529.834 251.18 527.358 256.89 525.653 263.161C523.971 269.33 522.74 275.813 522.39 282.201C522.186 286.025 527.736 285.799 528.203 282.201C529.747 270.285 531.859 258.128 536.346 246.897C537.227 244.69 533.454 243.08 532.478 245.273Z" fill="#232323"/>
<path d="M534.794 278.858C538.865 278.858 538.873 272.528 534.794 272.528C530.722 272.528 530.715 278.858 534.794 278.858Z" fill="#232323"/>
<path d="M538.508 258.828C541.903 258.828 541.91 253.547 538.508 253.547C535.114 253.547 535.107 258.828 538.508 258.828Z" fill="#232323"/>
<path d="M562.756 125.478C562.101 126.359 561.453 127.241 560.797 128.115C560.112 129.04 559.318 129.914 558.983 131.028C558.714 131.931 559.166 132.973 559.967 133.446C560.855 133.964 561.802 133.709 562.56 133.111C563.426 132.427 563.973 131.24 564.555 130.307C565.138 129.382 565.714 128.457 566.296 127.539C566.886 126.6 566.493 125.281 565.561 124.735C564.512 124.138 563.412 124.59 562.756 125.478Z" fill="#232323"/>
<path d="M473.94 300.301C477.421 304.89 482.148 308.881 487.808 309.93C493.475 310.979 500.052 308.298 502.091 302.908C503.635 298.822 502.39 294.241 500.853 290.148C500.219 288.45 497.867 285.806 496.104 285.377C489.709 295.181 480.757 294.918 471.806 297.737" fill="white"/>
<path d="M472.162 301.342C475.382 305.742 479.023 309.719 484.217 311.765C489.089 313.681 494.756 313.397 499.243 310.593C508.996 304.496 507.175 288.239 497.648 282.733C496.096 281.837 494.443 282.492 493.445 283.833C490.757 287.445 487.334 289.805 483.066 291.153C479.053 292.42 474.843 292.988 470.858 294.336C466.583 295.785 468.309 302.384 472.738 301.153C477.392 299.864 482.257 298.99 486.722 297.14C491.806 295.035 495.871 291.641 498.748 286.928C497.589 287.402 496.439 287.868 495.281 288.341C498.58 288.807 499.629 295.268 499.804 297.832C500.066 301.743 498.187 304.904 494.559 306.405C487.312 309.405 479.854 304.27 475.396 298.844C473.932 297.06 470.778 299.456 472.162 301.342Z" fill="white"/>
<path d="M290.026 199.152C290.187 199.145 290.347 199.138 290.507 199.131C291.075 199.101 291.621 198.912 292.029 198.497C292.401 198.125 292.685 197.514 292.663 196.975C292.641 196.421 292.452 195.838 292.029 195.452C291.621 195.074 291.082 194.797 290.507 194.819C290.347 194.826 290.187 194.833 290.026 194.84C289.458 194.87 288.912 195.059 288.504 195.474C288.133 195.846 287.848 196.457 287.87 196.996C287.892 197.55 288.082 198.133 288.504 198.519C288.919 198.905 289.458 199.181 290.026 199.152Z" fill="#232323"/>
<path d="M460.137 189.647C463.385 192.335 465.06 196.13 466.422 200.026C468.032 204.63 469.263 209.371 470.195 214.157C472.118 224.033 471.951 233.706 471.579 243.692C471.441 247.407 477.683 248.404 478.207 244.588C479.686 233.721 478.462 222.234 476 211.593C473.946 202.729 471.179 191.206 462.817 186.173C460.727 184.92 458.163 188.016 460.137 189.647Z" fill="#232323"/>
<path d="M613.808 327.272C599.525 321.059 586.691 316.325 571.898 311.591C568.497 310.498 564.928 309.398 561.431 310.083C557.935 310.767 554.585 313.856 554.774 317.592C555.007 322.283 559.472 324.861 560.324 329.202C561.293 334.112 559.814 339.778 557.957 344.301C553.179 355.955 540.738 368.308 529.806 374.565" fill="white"/>
<path d="M615.001 325.233C610.238 323.143 605.627 320.739 600.834 318.692C596.195 316.711 591.482 314.897 586.748 313.142C581.999 311.379 577.192 309.77 572.37 308.226C567.803 306.762 562.785 305.574 558.203 307.614C554.539 309.245 551.56 312.771 551.407 316.9C551.247 321.11 553.796 324.031 555.894 327.367C558.218 331.06 557.242 335.692 556.025 339.625C554.736 343.777 552.689 347.594 550.227 351.163C544.546 359.415 536.709 366.531 528.078 371.586C524.239 373.83 527.706 379.78 531.567 377.551C538.938 373.291 545.61 367.573 551.16 361.134C556.761 354.637 561.575 347.135 563.316 338.62C564.147 334.549 564.511 329.96 562.806 326.063C561.605 323.325 558.014 320.389 558.167 317.25C558.378 312.938 564.205 313.026 567.126 313.71C571.875 314.825 576.536 316.573 581.161 318.139C586.26 319.865 591.358 321.598 596.42 323.419C601.818 325.357 607.353 327.054 612.619 329.312C615.373 330.492 617.791 326.457 615.001 325.233Z" fill="#232323"/>
<path d="M499.104 279.491C496.183 280.613 493.532 282.266 491.434 284.626C490.466 285.719 489.694 286.913 488.943 288.152C487.946 289.805 486.445 290.257 484.624 290.876C480.968 292.121 477.122 292.631 473.437 293.767C469.736 294.904 466.109 296.397 462.526 297.853C448.257 303.659 434.513 310.855 421.701 319.413C418.416 321.605 421.497 326.944 424.811 324.737C437.572 316.216 451.003 308.83 465.133 302.828C468.615 301.35 472.133 299.849 475.745 298.735C479.431 297.599 483.218 296.834 486.795 295.377C488.259 294.78 489.847 294.153 491.085 293.148C492.207 292.245 492.695 291.116 493.35 289.871C494.967 286.775 497.487 284.597 500.663 283.199C502.739 282.274 501.253 278.668 499.104 279.491Z" fill="#232323"/>
<path d="M449.459 439.397C450.93 442.412 449.721 445.61 447.426 447.788C445.613 449.506 448.016 452.791 450.143 451.313C454.659 448.174 455.744 441.997 453.093 437.27C451.753 434.888 448.279 436.986 449.459 439.397Z" fill="#232323"/>
<path d="M308.585 483.747C312.598 486.406 318.52 486.122 321.798 482.407C323.699 480.251 320.873 477.541 318.687 479.297C316.349 481.176 313.334 481.679 310.697 480.127C308.359 478.751 306.349 482.269 308.585 483.747Z" fill="#232323"/>
<path d="M526.979 398.798C527.365 404.129 531.91 407.931 531.881 413.285C531.859 416.213 530.934 419.09 530.089 421.865C529.135 424.997 528.159 428.129 527.19 431.261C523.323 443.782 519.426 456.295 515.551 468.816C513.424 475.669 512.011 483.412 507.976 489.465C503.817 495.707 496.089 497.171 489.155 498.059C478.105 499.465 463.524 501.949 460.559 514.87C459.736 518.446 464.966 519.896 466.058 516.385C469.598 504.993 484.151 504.935 493.729 503.377C501.085 502.182 508.063 499.371 512.535 493.165C516.702 487.389 518.26 479.923 520.241 473.215C523.861 460.949 527.634 448.727 531.32 436.483C533.338 429.79 536.2 422.826 536.987 415.849C537.322 412.862 537.023 409.905 535.785 407.152C534.554 404.413 532.114 401.886 531.801 398.82C531.488 395.76 526.753 395.673 526.979 398.798Z" fill="#232323"/>
<path d="M549.041 394.449C542.376 418.347 535.894 442.288 529.484 466.252C528.297 470.687 527.146 475.109 525.733 479.479C524.509 483.274 523.308 487.105 522.725 491.06C522.222 494.498 521.982 498.453 524.123 501.425C526.964 505.358 532.245 505.292 536.6 505.467C543.476 505.744 550.352 506.013 557.228 506.29C559.325 506.377 563.025 505.94 564.686 507.601C566.31 509.233 565.64 512.547 565.385 514.55C564.977 517.755 570.557 518.541 571.074 515.322C571.766 510.981 572.123 506.042 568.423 502.896C564.686 499.72 558.837 500.339 554.278 500.164C548.218 499.939 542.165 499.713 536.105 499.48C534.138 499.407 531.422 499.655 529.659 498.577C528.319 497.761 528.275 496.151 528.29 494.731C528.362 487.272 531.953 479.734 533.767 472.567C536.862 460.381 539.973 448.21 543.017 436.01C546.382 422.528 549.704 409.031 552.981 395.527C553.608 392.985 549.747 391.907 549.041 394.449Z" fill="#232323"/>
<path d="M476.255 511.024C471.906 514.185 468.454 518.628 469.525 524.324C470.523 529.656 475.854 533.319 481.157 531.549C486.008 529.933 489.984 524.841 489.606 519.641C489.191 514.003 483.852 509.808 478.272 510.857C475.213 511.432 475.898 515.489 478.272 516.399C480.326 517.186 483.327 517.507 483.109 520.398C482.948 522.467 480.967 524.732 479.015 525.366C476.604 526.152 474.958 523.741 474.958 521.578C474.951 518.694 476.903 516.312 479.001 514.571C480.938 512.954 478.331 509.516 476.255 511.024Z" fill="#232323"/>
<path d="M508.791 511.024C504.443 514.185 500.99 518.629 502.061 524.324C503.059 529.656 508.39 533.32 513.693 531.55C518.544 529.933 522.521 524.841 522.142 519.641C521.727 514.003 516.388 509.808 510.809 510.857C507.749 511.432 508.434 515.489 510.809 516.4C512.863 517.186 515.863 517.507 515.645 520.398C515.485 522.467 513.503 524.732 511.551 525.366C509.141 526.153 507.494 523.742 507.494 521.578C507.487 518.694 509.439 516.312 511.537 514.572C513.482 512.955 510.867 509.517 508.791 511.024Z" fill="#232323"/>
<path d="M541.336 511.024C536.988 514.185 533.535 518.628 534.606 524.324C535.604 529.656 540.935 533.319 546.238 531.549C551.089 529.933 555.066 524.841 554.687 519.641C554.272 514.003 548.933 509.808 543.353 510.857C540.294 511.432 540.979 515.489 543.353 516.399C545.407 517.186 548.408 517.507 548.19 520.398C548.03 522.467 546.048 524.732 544.096 525.366C541.685 526.152 540.039 523.741 540.039 521.578C540.032 518.694 541.984 516.312 544.082 514.571C546.019 512.954 543.412 509.516 541.336 511.024Z" fill="#232323"/>
<path d="M556.813 395.52C555.946 398.331 555.429 401.281 554.795 404.151C554.678 404.69 554.627 405.316 554.416 405.826C554.256 406.285 554.336 406.256 554.671 405.739C554.372 405.724 554.074 405.717 553.768 405.702C552.435 405.389 550.767 405.622 549.463 405.95C546.892 406.591 546.987 410.371 549.463 411.063C552.654 411.952 557.73 412.068 559.304 408.543C560.076 406.802 560.17 404.683 560.491 402.825C560.87 400.611 561.307 398.397 561.51 396.161C561.773 393.386 557.577 393.036 556.813 395.52Z" fill="#232323"/>
<path d="M558.138 404.544C561.474 405.44 564.795 406.365 568.146 407.21C571.241 407.99 574.606 409.352 577.804 408.885C580.083 408.55 580.032 405.36 578.401 404.311C575.859 402.687 571.999 402.614 569.063 402.104C565.8 401.544 562.515 401.048 559.245 400.524C556.667 400.116 555.494 403.838 558.138 404.544Z" fill="#232323"/>
<path d="M579.421 408.179C579.661 408.252 579.625 408.223 579.304 408.106C579.479 408.216 579.479 408.208 579.319 408.092C579.166 407.968 579.166 407.975 579.312 408.114C579.108 407.822 579.071 407.786 579.217 407.997C579.428 408.514 579.02 407.458 579.217 407.982C579.384 408.449 579.246 407.473 579.202 407.931C579.282 407.509 579.29 407.429 579.232 407.706C579.144 407.968 579.173 407.902 579.319 407.509C579.29 407.553 579.261 407.596 579.239 407.64C579.355 407.414 579.53 407.24 579.756 407.116C579.297 407.385 580.36 406.97 579.843 407.101C579.333 407.232 580.543 407.123 579.872 407.087C579.647 407.079 579.763 407.094 580.222 407.138C580.12 407.116 580.018 407.087 579.923 407.05C580.055 407.101 580.186 407.152 580.317 407.21C580.069 407.05 580.135 407.116 580.521 407.392C580.127 407.021 580.856 407.961 580.586 407.487C580.761 407.946 580.805 408.033 580.725 407.742C580.776 408.237 580.797 408.368 580.797 408.135C580.805 407.902 580.783 408.033 580.732 408.529C580.754 408.427 580.783 408.325 580.812 408.223C580.754 408.361 580.696 408.5 580.637 408.638C580.688 408.543 580.739 408.456 580.797 408.368C580.484 408.755 580.433 408.835 580.63 408.609C580.666 408.572 580.703 408.536 580.739 408.5C580.331 408.791 580.258 408.856 580.521 408.696C580.047 408.871 579.96 408.922 580.258 408.842C581.752 408.47 582.793 406.708 582.312 405.222C581.788 403.605 580.317 402.855 578.692 403.168C576.252 403.641 574.687 406.227 575 408.609C575.327 411.049 577.447 412.855 579.945 412.651C582.334 412.455 584.447 410.634 584.323 408.099C584.206 405.739 582.378 403.845 580.018 403.707C577.44 403.554 576.959 407.531 579.421 408.179Z" fill="#232323"/>
<path d="M513.884 327.003C509.033 328.248 505.624 332.83 504.291 337.659C502.23 345.161 504.772 353.989 511.131 358.475C517.489 362.962 527.373 362.008 532.078 355.817C534.205 353.02 535.188 349.531 535.88 346.086C536.419 343.413 536.813 340.609 536.092 337.979C535.108 334.366 532.18 331.62 529.107 329.486C525.509 326.995 521.109 325.021 516.848 326.012" fill="white"/>
<path d="M513.258 324.715C496.848 329.413 497.11 353.937 510.679 361.826C516.878 365.431 525.327 365.212 531.168 360.973C534.599 358.482 536.682 354.87 537.935 350.871C539.268 346.632 540.346 341.526 539.1 337.149C537.833 332.691 534.366 329.399 530.651 326.857C526.354 323.921 521.328 321.977 516.142 323.441C513.36 324.227 513.768 328.976 516.849 328.67C524.271 327.942 533.98 334.432 533.288 342.466C532.669 349.662 529.661 357.339 521.583 358.111C514.554 358.788 508.953 353.974 507.169 347.367C505.479 341.118 507.445 331.387 514.518 329.275C517.439 328.415 516.208 323.87 513.258 324.715Z" fill="white"/>
<path d="M251.517 239.322C254.737 243.408 261.511 245.542 265.546 241.383C267.578 239.293 269.166 237.1 271.657 235.476C274.068 233.903 276.668 232.905 279.472 232.315C282.852 231.609 281.424 226.408 278.045 227.136C273.572 228.098 269.464 230.159 266.005 233.153C264.366 234.566 263.259 236.773 261.569 238.04C259.442 239.628 256.106 237.974 254.482 236.365C252.515 234.413 249.893 237.261 251.517 239.322Z" fill="#232323"/>
<path d="M273.536 247.975C277.506 247.465 281.475 246.948 285.438 246.351C288.067 245.957 286.945 241.966 284.338 242.359C280.558 242.927 276.799 243.561 273.034 244.202C270.921 244.566 271.387 248.252 273.536 247.975Z" fill="#232323"/>
<path d="M252.807 196.137C252.815 196.159 252.815 196.181 252.822 196.202C253.565 199.771 250.972 203.18 247.33 203.406C198.755 206.414 150.057 208.832 101.46 206.349C92.3918 205.882 75.7632 207.361 68.1154 201.469C65.2893 199.291 64.0511 195.678 62.995 192.269C49.746 149.543 39.8766 104.763 32.6002 60.6971C31.3038 52.8453 29.8106 45.9186 37.5313 43.6388C39.4906 43.0634 42.5352 43.6388 44.5746 43.6388C52.0476 43.6461 59.528 43.6388 67.001 43.6388C96.7475 43.6388 126.501 43.6388 156.248 43.6388C173.364 43.6388 189.978 42.5899 206.884 46.4139C209.346 46.9674 211.859 47.6302 213.927 49.0797C216.775 51.0754 218.458 54.3239 219.863 57.5069C225.384 69.9838 228.407 83.393 231.371 96.7076C238.728 129.797 245.881 162.945 252.807 196.137Z" fill="#1D545D"/>
<path d="M249.937 196.931C250.243 198.41 249.224 199.859 247.854 200.311C245.385 201.126 242.056 200.755 239.456 200.915C233.549 201.272 227.635 201.614 221.72 201.942C210.059 202.583 198.398 203.144 186.73 203.566C163.247 204.419 139.735 204.724 116.238 203.982C106.966 203.69 97.6942 203.435 88.4221 203.166C81.7284 202.969 71.2472 203.013 67.6345 196.166C65.2964 191.723 64.2621 186.304 62.8418 181.511C61.2248 176.049 59.6661 170.564 58.1584 165.065C55.1357 154.023 52.3242 142.923 49.7167 131.779C44.5744 109.833 40.1823 87.7124 36.4021 65.4899C35.6665 61.1707 34.5593 56.6985 34.5229 52.2992C34.4938 49.0142 35.9432 46.5232 39.5268 46.3557C41.6828 46.2537 43.8752 46.6106 46.0384 46.6106C49.1267 46.6106 52.215 46.6106 55.3032 46.6106C61.1884 46.6106 67.0736 46.6106 72.9515 46.6106C96.4195 46.6106 119.887 46.6106 143.355 46.6106C154.871 46.6106 166.394 46.3776 177.909 46.5014C183.518 46.5597 189.133 46.7854 194.72 47.39C199.855 47.9436 205.806 48.4825 210.576 50.6021C215.078 52.6051 216.92 57.8858 218.61 62.1394C220.613 67.1724 222.259 72.3438 223.709 77.5662C226.753 88.5864 229.033 99.8178 231.495 110.984C236.565 133.971 241.532 156.98 246.397 180.011C247.577 185.649 248.757 191.293 249.937 196.931C250.724 200.682 256.463 199.094 255.677 195.35C250.556 170.855 245.327 146.39 239.981 121.946C237.315 109.775 234.736 97.5817 231.859 85.4617C229.252 74.5071 226.382 62.9115 220.956 52.9474C218.457 48.3587 214.772 45.4307 209.724 44.0395C204.094 42.4881 198.18 41.7233 192.375 41.1989C180.517 40.1282 168.601 40.6308 156.714 40.6526C131.432 40.689 106.158 40.6526 80.8762 40.6526C68.5886 40.6526 56.1991 41.126 43.9261 40.638C39.4831 40.4632 35.2222 40.1573 31.7333 43.4932C29.0238 46.0789 28.3901 49.8956 28.6086 53.4864C28.9072 58.3446 29.9925 63.2174 30.8155 68.0028C31.828 73.9244 32.8841 79.8387 33.9839 85.7458C36.1982 97.6181 38.6018 109.454 41.2093 121.254C46.4244 144.809 52.4626 168.19 59.5569 191.257C61.0136 195.984 62.4631 200.951 66.6002 204.047C69.6885 206.356 73.5852 207.492 77.3436 208.133C85.647 209.554 94.0596 208.978 102.436 209.386C127.39 210.61 152.387 210.58 177.348 209.845C189.84 209.473 202.324 208.927 214.808 208.279C221.05 207.951 227.292 207.601 233.527 207.237C236.484 207.062 239.434 206.888 242.391 206.706C245.123 206.538 248.211 206.742 250.739 205.555C254.606 203.734 256.522 199.495 255.662 195.365C254.898 191.599 249.158 193.187 249.937 196.931Z" fill="#232323"/>
<path d="M237.402 196.137C237.875 198.417 238.356 200.696 238.83 202.976C187.968 206.174 136.953 208.949 86.0547 206.349C76.9865 205.882 60.3579 207.361 52.7101 201.468C49.884 199.291 48.6458 195.678 47.5897 192.269C34.3407 149.536 24.4713 104.763 17.1876 60.6898C15.8912 52.838 14.398 45.9113 22.1187 43.6315C24.078 43.0561 27.1226 43.6315 29.162 43.6315C36.635 43.6388 44.1154 43.6315 51.5884 43.6315C81.3349 43.6315 111.089 43.6315 140.835 43.6315C157.952 43.6315 174.566 42.5826 191.471 46.4065C193.933 46.9601 196.446 47.6229 198.514 49.0724C201.362 51.0681 203.045 54.3166 204.451 57.4996C209.972 69.9765 212.994 83.3857 215.959 96.7002C223.323 129.797 230.468 162.945 237.402 196.137Z" fill="white"/>
<path d="M234.532 196.931C235.006 199.211 235.486 201.491 235.96 203.77C236.914 202.518 237.875 201.257 238.83 200.005C192.083 202.94 145.22 205.533 98.3715 203.901C89.4636 203.596 80.5338 203.479 71.6331 203.122C64.4442 202.831 54.735 202.474 51.5885 194.775C49.5564 189.8 48.2817 184.396 46.774 179.239C45.2153 173.915 43.7149 168.583 42.2581 163.229C39.2572 152.18 36.4749 141.073 33.8819 129.914C28.7833 107.968 24.4277 85.8478 20.6839 63.6253C20.0138 59.6703 18.9358 55.4822 19.1325 51.4398C19.3073 47.8562 21.7473 46.2392 25.2362 46.3776C36.3219 46.8074 47.4368 46.6107 58.5371 46.6107C82.0051 46.6107 105.473 46.6107 128.941 46.6107C140.282 46.6107 151.63 46.3631 162.97 46.5014C168.586 46.5743 174.194 46.8146 179.774 47.441C184.821 48.0092 190.961 48.4826 195.572 50.7842C199.906 52.9475 201.712 58.3593 203.365 62.5692C205.405 67.7552 207.073 73.0868 208.537 78.4622C211.45 89.1983 213.679 100.124 216.075 110.976C221.145 133.964 226.112 156.973 230.978 180.004C232.165 185.649 233.352 191.293 234.532 196.931C235.319 200.682 241.058 199.094 240.272 195.35C235.224 171.183 230.06 147.031 224.787 122.914C222.223 111.18 219.703 99.4318 216.986 87.7343C214.422 76.6922 211.458 65.6502 206.716 55.3147C204.647 50.8061 201.821 46.9312 197.109 44.9937C192.149 42.9543 186.46 42.3061 181.172 41.6578C169.518 40.2156 157.762 40.5288 146.05 40.6381C121.512 40.8566 96.9585 40.6672 72.4125 40.6672C60.2706 40.6672 48.1288 40.6672 35.9869 40.6672C33.2774 40.6672 30.5387 40.7692 27.8292 40.609C25.4037 40.4706 23.022 40.1865 20.6621 40.9877C17.1076 42.1895 14.4054 44.8189 13.5386 48.519C12.6427 52.3211 13.4585 56.349 14.0849 60.1219C15.0391 65.8687 16.0151 71.6155 17.0421 77.3478C19.1106 88.9069 21.354 100.437 23.7867 111.923C28.6595 134.932 34.2971 157.789 40.8888 180.368C42.4766 185.809 43.8605 191.454 45.9728 196.72C47.6335 200.842 50.2265 204.011 54.3199 205.868C61.9313 209.32 70.8684 209.168 79.0552 209.211C89.5947 209.27 100.134 209.991 110.674 210.195C122.83 210.435 134.994 210.413 147.15 210.195C171.813 209.758 196.461 208.519 221.079 207.055C226.986 206.706 232.901 206.334 238.808 205.963C240.818 205.839 242.093 204.171 241.678 202.197C241.204 199.917 240.731 197.638 240.25 195.358C239.492 191.599 233.746 193.187 234.532 196.931Z" fill="#232323"/>
<path d="M107.476 165.618C102.115 196.406 95.9169 227.042 88.8809 257.487C104.213 257.866 119.56 257.597 134.87 256.671C135.926 256.606 137.15 256.453 137.711 255.55C138.067 254.974 138.053 254.253 138.024 253.576C136.866 226.022 135.708 198.468 134.549 170.921" fill="white"/>
<path d="M105.364 165.036C102.661 180.404 99.3911 195.678 96.1134 210.937C92.8358 226.204 89.5436 241.478 85.8362 256.65C85.3336 258.704 86.7976 260.546 88.8735 260.634C97.9999 261.034 107.148 261.049 116.282 260.889C121.009 260.801 125.736 260.656 130.463 260.452C134.149 260.292 139.029 260.801 140.995 256.941C141.84 255.288 141.622 253.408 141.549 251.617C141.454 249.155 141.352 246.7 141.258 244.238C141.075 239.642 140.872 235.054 140.668 230.465C140.245 221.12 139.83 211.768 139.408 202.423C138.934 191.92 138.315 181.424 137.594 170.936C137.332 167.068 131.439 166.973 131.497 170.936C131.76 188.001 132.437 205.045 133.107 222.103C133.442 230.632 133.777 239.162 134.156 247.691C134.207 248.842 134.258 249.985 134.309 251.136C134.338 251.711 134.105 253.489 134.426 253.94C134.906 254.61 135.139 252.964 135.212 253.066C135.227 253.088 134.192 253.11 134.382 253.146C133.253 252.928 131.599 253.328 130.47 253.401C126.231 253.663 121.992 253.867 117.753 254.02C108.131 254.37 98.5097 254.384 88.8807 254.355C89.8932 255.681 90.9056 257.014 91.918 258.34C95.2394 243.066 98.5753 227.792 101.496 212.438C104.417 197.069 106.915 181.628 109.588 166.216C110.062 163.448 105.852 162.268 105.364 165.036Z" fill="#232323"/>
<path d="M187.356 191.628C193.744 192.706 200.394 193.391 206.716 191.585C209.389 190.82 208.996 186.151 206.031 186.537C200.205 187.295 194.407 188.256 188.536 187.324C185.739 186.872 184.516 191.148 187.356 191.628Z" fill="#232323"/>
<path d="M186.242 183.187C190.386 184.483 194.997 184.796 199.097 183.201C202.579 181.846 201.304 176.624 197.524 177.505C194.217 178.27 190.991 178.838 187.596 178.277C184.413 177.746 183.044 182.189 186.242 183.187Z" fill="#232323"/>
<path d="M184.326 174.883C186.737 174.92 189.147 174.978 191.558 174.927C194.698 174.861 194.705 170.105 191.558 170.04C189.147 169.989 186.737 170.047 184.326 170.083C181.245 170.142 181.237 174.839 184.326 174.883Z" fill="#232323"/>
<path d="M32.1628 70.2607C31.7622 68.7238 31.3397 67.1943 30.9756 65.6501C30.7206 64.5576 29.6936 62.0447 30.0433 60.974C29.5553 61.2071 29.6062 61.2508 30.1816 61.0906C30.6551 61.0104 31.1212 60.9303 31.5947 60.8648C32.3158 60.7628 33.0441 60.6827 33.7652 60.6171C35.506 60.4496 37.2541 60.3767 39.0022 60.3695C40.59 60.3622 42.1851 60.4205 43.7657 60.5443C44.5596 60.6025 45.3535 60.6827 46.1402 60.7773C46.5408 60.8356 46.9341 60.8866 47.3347 60.9449C48.4127 61.3528 48.5729 61.178 47.8008 60.4277C46.8977 58.8326 47.3784 61.0177 47.4002 61.5494C47.4366 62.2996 47.4731 63.0499 47.5095 63.8001C47.5896 65.4316 47.8008 67.1287 47.5896 68.7457C48.857 67.7842 50.117 66.8228 51.3844 65.8541C45.7978 64.8999 39.7087 65.3005 34.042 65.1767C29.8684 65.082 29.8612 71.5936 34.042 71.6664C36.8025 71.7101 39.5557 71.7393 42.3162 71.7757C45.033 71.8121 47.8955 72.0889 50.5905 71.7393C52.4915 71.4916 54.0284 70.0276 53.4821 67.9445C52.8703 65.6355 53.0159 63.028 52.7901 60.6535C52.6299 58.9637 52.4041 57.2666 50.7289 56.4071C48.9298 55.4821 46.2348 55.5477 44.2537 55.3947C41.8719 55.2126 39.4902 55.1835 37.1084 55.3146C34.8213 55.4384 32.5416 55.6933 30.2763 56.0648C28.4773 56.3562 26.3577 56.6184 25.4618 58.4684C24.5587 60.333 25.8697 62.2122 26.5471 63.9312C27.4867 66.2984 28.2442 68.7238 29.0235 71.1493C29.6572 73.1159 32.6945 72.3001 32.1628 70.2607Z" fill="#232323"/>
<path d="M112.968 158.633C112.764 160.891 114.694 163.288 116.399 164.562C118.11 165.837 120.405 166.434 122.444 165.589C124.513 164.73 125.62 162.537 125.052 160.352C124.447 158.014 122.459 156.864 120.128 157.213C118.642 157.432 117.826 159.311 118.183 160.629C118.606 162.173 120.121 162.858 121.599 162.574C119.873 162.902 119.487 161.846 120.077 160.862C120.303 160.491 120.456 160.884 120.223 160.673C120.23 160.68 119.56 160.462 119.669 160.513C118.343 159.908 118.139 158.502 117.375 157.446C115.983 155.487 113.187 156.223 112.968 158.633Z" fill="#232323"/>
<path d="M115.816 181.861C116.479 183.158 117.44 184.389 118.54 185.35C119.268 185.984 120.521 186.348 121.388 185.714C122.852 184.651 123.5 182.99 123.048 181.206C122.575 179.319 120.55 178.015 118.649 178.62C117.79 178.897 117.163 179.581 117.039 180.484C116.93 181.3 117.309 182.349 118.11 182.721C118.139 182.735 118.38 182.895 118.402 182.888C118.074 182.611 118.001 182.56 118.176 182.728C118.096 182.619 118.008 182.509 117.928 182.4C118.117 182.626 118.292 182.866 118.467 183.107C117.964 182.436 118.249 182.888 118.358 183.048C118.496 183.238 118.154 182.393 118.285 182.895C118.416 183.405 118.27 182.458 118.263 182.713C118.263 182.91 118.285 182.793 118.329 182.364C118.285 182.538 118.3 182.517 118.38 182.298C118.482 182.087 118.489 182.065 118.402 182.225C118.664 181.912 118.707 181.847 118.54 182.021C119.487 181.898 120.441 181.774 121.388 181.657C121.279 181.584 121.177 181.511 121.067 181.446C120.572 181.111 121.249 181.628 120.994 181.395C120.776 181.198 120.55 181.016 120.346 180.805C120.259 180.71 120.171 180.616 120.091 180.514C119.967 180.368 119.96 180.317 120.077 180.499C119.902 180.23 119.713 179.96 119.552 179.683C118.984 178.7 117.571 178.278 116.595 178.904C115.561 179.559 115.262 180.783 115.816 181.861Z" fill="#232323"/>
<path d="M205.907 495.772C211.953 460.862 219.513 426.17 226.571 391.448C230.359 372.824 234.139 354.192 237.839 335.554C239.42 327.585 240.986 319.61 242.508 311.627C243.127 308.385 243.739 305.137 244.336 301.888C245.123 297.613 245.654 292.056 249.194 289.04C251.059 287.46 253.594 286.95 255.946 286.578C259.238 286.054 262.589 285.784 265.903 285.413C272.764 284.641 279.633 283.92 286.516 283.366C293.392 282.813 300.275 282.434 307.172 282.354C313.779 282.281 320.334 282.754 326.926 282.9C337.283 283.133 350.67 279.834 353.314 268.063C354.443 263.023 352.44 257.465 348.536 254.115C345.251 251.296 341.143 250.109 336.919 249.621C328.746 248.681 320.479 250.451 312.307 250.699C298.49 251.107 284.673 251.5 270.849 251.857C243.528 252.563 216.207 253.146 188.886 253.539C133.887 254.341 78.8731 254.428 23.8814 253.226C17.1076 253.081 10.3483 252.913 3.56725 252.993C-1.23268 253.051 -1.14528 260.08 3.56725 260.393C17.0784 261.289 30.6625 261.304 44.1955 261.508C57.7432 261.712 71.2908 261.843 84.8311 261.908C111.926 262.04 139.022 261.887 166.11 261.537C193.125 261.187 220.132 260.641 247.14 259.956C260.637 259.614 274.126 259.243 287.623 258.842C299.036 258.5 310.566 258.602 321.936 257.422C325.928 257.006 329.941 256.591 333.962 256.73C337.312 256.846 341.151 257.312 343.765 259.621C347.174 262.629 346.934 267.32 343.977 270.525C340.335 274.487 334.857 275.565 329.701 275.689C323.182 275.842 316.648 275.157 310.122 275.157C303.392 275.165 296.662 275.478 289.954 275.973C283.231 276.468 276.523 277.153 269.822 277.911C263.776 278.595 257.345 278.814 251.445 280.372C246.135 281.778 242.282 285.202 240.177 290.249C238.567 294.109 238.007 298.276 237.264 302.369C235.945 309.631 234.576 316.886 233.185 324.133C229.754 342.021 226.214 359.881 222.682 377.748C215.631 413.343 208.195 448.931 202.353 484.752C201.829 487.95 201.282 491.147 200.751 494.345C200.19 497.71 205.317 499.166 205.907 495.772Z" fill="#232323"/>
<path d="M112.327 118.777C105.939 118.821 99.85 113.897 99.1508 107.393C98.5025 101.347 102.334 95.1344 108.306 93.5903C114.344 92.0316 121.213 95.0252 123.325 101.085C125.634 107.706 120.754 114.188 113.784 113.802C110.419 113.613 109.574 119.2 112.975 119.768C120.448 121.013 127.79 115.98 129.298 108.464C130.784 101.078 126.894 93.0877 120.12 89.7664C113.791 86.6562 105.983 87.1734 100.447 91.6893C94.9918 96.1323 92.4425 104.05 94.5402 110.809C96.9001 118.391 104.49 123.402 112.327 123.249C115.197 123.191 115.211 118.763 112.327 118.777Z" fill="#232323"/>
<path d="M543.818 112.011C540.512 99.0822 524.546 98.5505 513.715 97.793C503.685 97.0864 493.627 96.766 483.626 95.6443C464.609 93.5102 444.163 88.113 433.544 70.7269C426.333 58.9201 424.468 44.8262 431.439 32.4731C437.841 21.1324 449.167 13.2005 461.324 9.03423C475.498 4.16875 490.946 4.19059 505.557 6.92196C519.017 9.43483 531.961 14.6936 539.062 27.0759C542.733 33.4855 544.474 40.791 544.204 48.1621C544.044 52.5396 543.192 56.8515 541.815 61.0032C540.599 64.6596 538.669 67.8644 536.986 71.295C533.796 77.8066 533.636 85.0465 534.066 92.17C534.524 99.7668 536.01 107.196 539.077 114.181C540.366 117.117 545.559 114.975 544.306 111.974C541.633 105.579 540.264 98.6597 539.856 91.7548C539.455 84.8645 539.681 78.3674 542.864 72.1399C549.441 59.2697 551.728 44.4183 546.331 30.6521C541.167 17.4687 530.54 8.79387 517.204 4.56934C502.855 0.0316214 486.816 -1.19931 471.972 1.20429C445.729 5.45067 416.471 27.003 422.014 56.7422C424.14 68.1703 430.63 78.9793 439.749 86.1974C447.689 92.4832 457.252 96.176 467.078 98.3247C477.406 100.583 488.004 101.333 498.536 101.952C503.685 102.258 508.842 102.498 513.992 102.848C520.11 103.263 527.284 103.183 532.835 106.016C535.806 107.531 538.217 110.051 539.062 113.314C539.878 116.374 544.605 115.077 543.818 112.011Z" fill="#232323"/>
<path d="M482.768 50.1796C485.113 54.375 490.94 54.863 494.706 52.2846C499.425 49.0506 498.923 42.2914 495.9 38.0887C491.989 32.6551 484.661 31.6864 478.514 32.9537C475.906 33.4927 473.058 34.5998 472.214 37.3895C471.347 40.2301 473.022 43.2091 475.127 45.0519C479.708 49.0725 487.334 49.881 492.426 46.3702C496.847 43.3184 498.85 36.8213 496.279 31.9631C493.453 26.6315 486.191 24.9635 480.626 25.0947C474.741 25.2258 468.921 27.3817 464.471 31.2421C455.57 38.97 455.031 53.1368 462.883 61.8262C471.667 71.5353 487.524 68.6218 495.281 59.1749C499.542 53.9817 501.64 47.339 501.836 40.6744C502.018 34.4906 500.853 27.0612 495.958 22.7566C490.867 18.2771 482.768 19.0565 476.875 21.4091C470.648 23.9001 469.351 31.7301 470.16 37.7609C470.997 43.9593 476.839 46.6179 482.25 48.0309C485.717 48.9341 505.573 52.0733 502.667 57.6963C500.809 61.2945 495.456 60.9448 493.169 64.1351C491.391 66.6188 493.38 68.5417 495.631 69.5687C497.918 70.6103 502.149 71.1274 503.249 73.6913C503.956 75.3301 503.096 77.2603 503.002 78.9646C502.921 80.4359 503.213 81.8417 504.029 83.0799C505.558 85.4034 508.275 86.2847 510.919 85.8331C513.024 85.4762 512.121 82.3078 510.038 82.6356C508.676 82.8541 507.19 82.1112 506.585 80.8511C505.937 79.4891 506.556 77.7046 506.724 76.3061C506.964 74.2521 506.665 72.2637 505.23 70.6831C504.036 69.3648 502.419 68.6364 500.787 68.0027C499.797 67.6167 498.77 67.3108 497.779 66.9029C497.619 66.8373 496.279 66.4149 496.191 66.16C495.958 65.519 496.774 65.3078 497.546 64.878C501.203 62.8386 507.357 60.7482 506.134 55.2417C505.092 50.5656 498.923 49.3128 495.07 48.1547C489.942 46.6033 484.472 45.9259 479.461 44.0249C477.283 43.2018 475.018 41.9418 473.867 39.8295C472.432 37.2001 472.971 33.6894 473.386 30.8487C473.838 27.8042 474.967 25.3059 477.99 24.1114C480.648 23.0625 483.751 22.5017 486.592 22.5017C493.242 22.5017 496.614 27.1341 497.888 33.1649C500.023 43.2528 497.014 55.5477 487.932 61.3527C479.512 66.7354 467.858 65.5627 462.803 56.3052C458.185 47.8488 460.684 37.2584 468.768 31.9704C472.651 29.4284 477.305 28.1465 481.945 28.3067C486.475 28.467 493.045 30.0621 494.057 35.2554C495.346 41.8471 488.944 46.261 482.942 45.2631C480.175 44.797 476.773 43.3111 475.549 40.5797C473.772 36.5956 479.235 35.8235 481.974 35.6195C487.917 35.168 495.164 38.1033 495.361 45.0009C495.441 47.7541 494.108 50.1505 491.464 51.1046C488.988 51.9932 486.082 51.4178 484.705 49.0506C483.991 47.7687 482.054 48.9049 482.768 50.1796Z" fill="#232323"/>
<path d="M176.671 58.4684C179.752 58.5777 182.789 58.6287 185.87 58.4101C188.944 58.1916 188.849 53.2897 185.87 53.6612C182.826 54.0399 179.737 54.3094 176.671 54.2585C173.954 54.2075 173.969 58.3737 176.671 58.4684Z" fill="#232323"/>
<path d="M243.979 44.7242C250.935 41.9783 257.738 38.6933 264.519 35.5468C267.629 34.1046 264.92 29.5887 261.839 30.9654C255.225 33.9298 248.481 36.8069 242.049 40.1501C239.587 41.4393 241.314 45.7803 243.979 44.7242Z" fill="#232323"/>
<path d="M255.007 97.9531C262.014 96.4381 269.086 95.1052 276.005 93.2406C279.356 92.3374 277.921 87.4792 274.592 88.1056C267.549 89.4239 260.6 91.2813 253.63 92.9492C250.374 93.7359 251.758 98.6596 255.007 97.9531Z" fill="#232323"/>
<path d="M263.135 161.001C266.092 161.387 269.05 161.773 271.999 162.159C273.412 162.341 274.6 160.826 274.614 159.544C274.629 157.992 273.398 157.097 271.999 156.929C269.042 156.572 266.085 156.223 263.135 155.866C261.744 155.698 260.579 157.169 260.564 158.437C260.55 159.966 261.766 160.819 263.135 161.001Z" fill="#232323"/>
<path d="M41.5298 526.102C39.4831 512.153 37.4582 498.205 35.244 484.279C34.115 477.155 32.9351 470.046 31.6604 462.945C31.3691 461.335 31.0777 459.718 30.7791 458.109C30.5606 456.929 30.4877 455.494 29.8395 454.438C28.7105 452.609 26.8678 452.711 25.0031 452.34C23.2842 451.998 23.4954 450.424 23.2551 448.844C22.9856 447.066 22.6724 445.129 22.7379 443.323C22.8617 439.79 25.5786 438.574 28.6887 438.013C33.4158 437.153 38.3177 438.02 43.0666 438.231C56.4759 438.814 70.0381 438.217 83.4618 438.166C91.1243 438.129 98.794 438.144 106.456 438.027C114.104 437.911 121.796 437.787 129.291 439.513C128.883 438.982 128.475 438.443 128.074 437.911C127.972 440.395 127.805 442.871 127.543 445.348C127.448 446.265 127.557 448.443 127.076 449.069C126.472 449.856 127.39 449.135 126.363 449.441C125.714 449.638 124.855 449.63 124.192 449.718C122.269 449.958 120.354 449.718 119.8 451.83C118.89 455.319 118.773 459.186 118.358 462.763C117.761 467.956 117.2 473.149 116.639 478.35C116.428 480.28 116.224 482.217 116.013 484.148C115.743 486.559 115.539 487.833 115.153 490.623C113.536 502.167 111.912 513.705 110.448 525.264C110.237 526.954 113.179 527.369 113.441 525.672C117.149 501.556 120.281 477.381 122.947 453.134C122.968 452.966 123.121 452.638 123.078 452.471C123.07 452.435 123.151 452.318 123.129 452.289C123.209 452.063 123.1 452.216 122.801 452.762C122.211 453.367 122.386 453.505 123.325 453.163C124.367 453.301 125.736 452.857 126.8 452.726C127.688 452.609 128.788 452.573 129.487 451.917C130.704 450.759 130.529 448.29 130.711 446.753C131.061 443.818 131.272 440.875 131.396 437.925C131.425 437.226 130.864 436.483 130.179 436.323C123.427 434.772 116.515 434.604 109.617 434.692C102.37 434.786 95.1303 434.874 87.8903 434.932C73.1773 435.048 58.3915 435.617 43.6785 435.311C38.6455 435.209 33.6052 434.393 28.594 435.209C26.4817 435.551 24.3768 436.221 22.6432 437.51C20.1741 439.346 19.8463 441.276 20.0284 444.255C20.1959 447.045 20.2469 450.606 21.3103 453.199C22.2863 455.588 24.5516 454.532 26.4744 455.297C27.9676 455.894 27.8948 457.431 28.1643 458.859C28.5284 460.789 28.8853 462.726 29.2277 464.657C29.9269 468.524 30.597 472.399 31.2452 476.281C34.064 493.085 36.4895 509.954 39.148 526.779C39.3811 528.345 41.7629 527.668 41.5298 526.102Z" fill="#232323"/>
<path d="M22.7308 454.387C36.9485 456.579 51.3483 457.562 65.719 456.36C67.9915 456.171 68.0352 452.631 65.719 452.777C51.4867 453.673 37.2471 453.17 23.0367 452.151C21.7693 452.056 21.4562 454.19 22.7308 454.387Z" fill="#232323"/>
<path d="M74.794 457.009C75.0999 457.009 75.3985 457.016 75.7045 457.016C76.4255 457.023 77.1248 456.375 77.0884 455.632C77.0519 454.889 76.4765 454.241 75.7045 454.248C75.3985 454.248 75.0999 454.255 74.794 454.255C74.0729 454.263 73.381 454.889 73.4174 455.632C73.4538 456.382 74.0219 457.001 74.794 457.009Z" fill="#232323"/>
<path d="M76.4404 434.969C78.5453 411.974 81.6263 388.047 94.5111 368.272C97.3882 363.858 100.739 359.736 104.541 356.079C106.383 354.309 108.379 352.372 110.579 351.046C111.97 350.209 113.558 349.4 115.044 350.398C116.581 351.432 116.814 353.712 116.901 355.446C117.229 361.68 113.871 367.82 111.111 373.196C108.27 378.724 105.072 384.063 101.919 389.409C94.6058 401.821 87.1109 414.152 80.155 426.767C79.3538 428.217 81.5025 429.477 82.3765 428.064C90.1191 415.529 97.3299 402.651 104.708 389.897C108.212 383.845 111.744 377.785 114.782 371.477C117.338 366.167 120.019 360.282 119.283 354.236C118.7 349.436 115.714 345.802 110.637 348.096C105.677 350.34 101.307 355.293 97.8762 359.379C90.476 368.192 85.2827 378.695 81.8157 389.628C77.1614 404.29 75.5226 419.68 74.248 434.947C74.1096 436.389 76.3092 436.374 76.4404 434.969Z" fill="#232323"/>
<path d="M70.1474 434.946C66.287 424.538 62.4631 414.115 58.7339 403.663C55.1212 393.524 51.5376 383.283 49.7167 372.642C48.7626 367.055 45.1936 342.932 56.7163 346.515C61.5599 348.023 63.1915 353.61 64.4588 357.944C65.9811 363.122 67.3213 368.359 68.5013 373.625C71.2181 385.796 72.8278 398.106 73.7747 410.532C73.8912 412.083 76.3166 412.112 76.2147 410.532C75.4499 398.397 73.6144 386.284 71.0433 374.405C69.7104 368.257 68.1881 362.132 66.3526 356.115C65.0998 352.015 63.3881 347.55 59.5132 345.248C56.2356 343.303 51.7343 343.238 49.083 346.253C46.0603 349.706 46.155 355.635 46.0894 359.925C45.9074 372.059 49.1049 383.983 52.9652 395.382C57.5539 408.907 62.6379 422.28 67.8093 435.587C68.3775 437.008 70.6937 436.41 70.1474 434.946Z" fill="#232323"/>
<path d="M89.8568 423.162C92.559 418.639 95.9678 414.582 99.9519 411.129C102.538 408.886 110.724 401.609 114.301 405.361C117.862 409.09 110.062 416.06 107.716 418.369C103.783 422.259 99.2527 425.063 94.9189 428.421C93.5642 429.469 95.2904 431.283 96.6379 430.649C102.8 427.751 108.488 422.128 112.851 417.014C115.714 413.657 120.339 407.327 115.838 403.343C111.467 399.475 104.97 404.239 101.431 406.985C96.0406 411.158 91.6777 416.344 88.2835 422.251C87.7081 423.256 89.2595 424.16 89.8568 423.162Z" fill="#232323"/>
<path d="M55.1716 420.882C53.7659 417.859 47.582 413.205 47.0722 419.236C46.6206 424.538 49.5486 429.848 54.0354 432.572C55.5577 433.497 56.7886 431.232 55.4047 430.234C52.9938 428.5 51.1365 426.097 50.3134 423.22C50.0585 422.338 49.301 419.928 50.175 419.345C51.2749 418.609 52.921 421.159 53.3434 421.952C53.9917 423.183 55.7397 422.105 55.1716 420.882Z" fill="#232323"/>
<path d="M77.2849 326.558C77.4014 341.621 77.518 356.684 77.2193 371.746C76.9134 386.809 76.1049 401.842 75.5368 416.898C75.4785 418.34 77.6418 418.303 77.7583 416.898C78.9747 401.893 79.368 386.794 79.6448 371.746C79.9216 356.691 79.9944 341.606 79.4845 326.558C79.4336 325.145 77.2703 325.138 77.2849 326.558Z" fill="#232323"/>
<path d="M82.8862 339.086C83.3087 337.338 83.9496 335.685 84.9621 334.184C85.1733 333.871 86.3897 331.722 87.2273 332.647C87.4531 332.895 86.8995 334.687 86.8048 335.015C85.8361 338.205 83.5272 340.608 80.6574 342.189C79.1351 343.027 80.4753 345.204 82.0049 344.491C84.6125 343.274 86.783 341.235 88.1523 338.693C89.2303 336.704 90.4248 333.667 89.5872 331.409C88.8515 329.435 86.8194 329.006 85.2024 330.317C82.8498 332.232 81.4805 335.656 80.8686 338.525C80.5919 339.836 82.573 340.397 82.8862 339.086Z" fill="#232323"/>
<path d="M75.6467 349.05C73.498 346.472 73.6874 342.539 70.4098 340.82C68.5233 339.829 66.1852 340.237 65.2238 342.269C64.022 344.804 65.5588 347.812 66.9937 349.903C69.0113 352.838 71.7135 355.132 74.8892 356.735C76.3532 357.47 77.6351 355.234 76.1711 354.542C72.4783 352.816 68.079 349.473 67.0666 345.277C66.8845 344.636 66.8699 343.996 67.0228 343.355C68.2465 342.269 69.3245 342.211 70.2495 343.187C71.1891 344.01 71.5824 345.161 72.034 346.283C72.6458 347.798 73.1994 349.182 74.2628 350.442C75.0713 351.425 76.4552 350.019 75.6467 349.05Z" fill="#232323"/>
<path d="M74.9401 324.075C74.1243 323.616 73.3304 322.873 73.1993 321.89C73.0827 320.986 73.6217 319.908 74.5977 319.785C77.147 319.45 76.608 323.601 76.3385 324.956C76.0253 326.522 78.3488 327.207 78.764 325.626C79.303 323.565 79.5798 321.307 78.3852 319.406C77.3728 317.796 75.4281 316.806 73.5635 317.476C71.8591 318.088 70.7374 319.85 70.8175 321.649C70.8976 323.543 72.2014 325.131 73.8402 325.968C75.0785 326.602 76.171 324.774 74.9401 324.075Z" fill="#232323"/>
<path d="M63.49 390.101C67.3721 405.273 70.4604 420.576 73.2646 435.974C73.5341 437.438 75.7192 436.804 75.4861 435.362C73.0097 419.935 69.5281 404.639 65.5876 389.526C65.2307 388.171 63.1403 388.739 63.49 390.101Z" fill="#232323"/>
<path d="M77.0594 432.354C79.9292 418.937 84.6708 406.03 91.1533 393.94C91.8234 392.694 89.9151 391.58 89.2523 392.832C82.7552 405.12 78.0864 418.26 75.3696 431.895C75.1584 432.987 76.819 433.461 77.0594 432.354Z" fill="#232323"/>
<path d="M95.9675 383.13C97.4825 383.13 97.4825 380.778 95.9675 380.778C94.4598 380.778 94.4525 383.13 95.9675 383.13Z" fill="#232323"/>
<path d="M43.3363 491.06C44.5308 487.797 46.3226 484.949 48.7262 482.436C48.2018 482.436 47.6847 482.436 47.1602 482.436C51.6907 486.93 56.2503 491.424 60.6933 496.006C61.3561 496.69 62.4559 496.479 62.9439 495.714C64.7867 492.823 66.2944 489.676 67.926 486.661C68.5451 485.525 69.1642 483.704 70.1548 482.808C71.6552 481.446 73.061 483.456 74.088 484.592C76.2512 487.003 78.1668 489.625 79.8056 492.415C80.6651 493.872 81.6557 496.232 83.7898 495.831C86.1279 495.394 87.1111 491.65 88.0143 489.836C88.7208 488.416 89.4201 486.989 90.1047 485.561C90.7457 484.235 91.3211 482.028 92.3044 480.95C94.9047 478.102 105.954 490.368 107.87 492.48C109.13 493.879 111.191 491.81 109.931 490.419C107.36 487.579 104.57 484.942 101.562 482.567C99.3696 480.841 96.5508 478.073 93.7757 477.425C90.6947 476.711 89.4419 480.142 88.3129 482.305C87.6938 483.492 83.1852 492.357 83.2508 492.386C83.3309 492.422 82.4715 490.732 82.3112 490.463C81.8014 489.625 81.2697 488.795 80.7088 487.986C79.8348 486.726 78.9025 485.495 77.9337 484.308C76.3677 482.4 74.1972 479.122 71.4658 478.955C68.7927 478.787 67.2704 481.431 66.1706 483.456C64.2477 487.018 62.1282 490.572 60.4748 494.265C61.225 494.17 61.9752 494.068 62.7254 493.974C57.9619 489.735 53.3149 485.299 48.7335 480.863C48.3111 480.455 47.5827 480.419 47.1675 480.863C44.5308 483.674 42.5934 486.857 41.3042 490.485C40.8307 491.788 42.8702 492.327 43.3363 491.06Z" fill="#232323"/>
</svg>
