<svg width="525" height="575" viewBox="0 0 525 575" fill="none" xmlns="http://www.w3.org/2000/svg">
<path d="M47.2324 322.043C53.1484 341.219 69.1264 355.241 81.9064 370.709C96.8224 388.763 107.892 409.727 118.788 430.529C139.11 469.313 157.272 509.807 178.44 547.961C179.574 550.007 180.87 552.179 182.94 553.145C184.692 553.967 186.666 553.757 188.514 553.481C207.09 550.703 224.412 542.837 240.312 533.081C244.242 530.669 248.388 527.747 249.528 523.109C249.942 521.423 249.864 519.455 248.79 518.033C248.016 517.001 246.84 516.401 245.706 515.837C238.806 512.399 228.552 510.071 222.732 504.965C215.052 498.233 210.858 484.865 207.354 475.607C191.85 434.657 173.61 394.685 152.82 356.093C134.016 321.191 111.054 285.461 76.2064 268.589" fill="white"/>
<path d="M45.6784 322.469C51.9244 342.203 67.4464 356.183 80.2264 371.711C95.1664 389.861 106.158 410.831 116.976 431.585C128.286 453.281 138.894 475.325 149.73 497.261C155.142 508.217 160.614 519.149 166.278 529.979C169.098 535.373 171.96 540.743 174.882 546.083C177.066 550.067 179.19 554.909 184.158 555.791C189.084 556.667 195.258 554.615 199.992 553.397C205.446 551.993 210.792 550.181 216.006 548.051C225.87 544.025 236.13 539.177 244.746 532.847C248.256 530.267 251.52 526.787 251.964 522.239C252.474 517.061 248.862 514.679 244.62 512.819C235.956 509.027 226.212 507.023 220.416 498.905C214.872 491.141 212.148 481.661 208.794 472.841C204.522 461.615 200.052 450.467 195.378 439.403C185.82 416.753 175.434 394.457 164.232 372.569C145.686 336.347 124.992 297.107 90.2044 273.911C86.0944 271.169 81.8104 268.739 77.3584 266.609C74.7304 265.349 72.4084 269.231 75.0544 270.557C110.574 288.329 132.438 323.495 150.708 357.323C172.56 397.775 191.394 439.709 207.534 482.753C210.528 490.745 213.822 499.337 219.954 505.505C226.398 511.991 235.848 513.659 243.84 517.451C256.128 523.277 233.28 534.707 228.63 537.179C218.85 542.393 208.56 546.677 197.796 549.359C195.402 549.959 192.984 550.475 190.548 550.901C187.5 551.441 184.338 552.275 182.106 549.587C180.474 547.625 179.376 545.081 178.152 542.855C176.688 540.191 175.242 537.515 173.808 534.833C168.324 524.573 163.032 514.211 157.824 503.807C147.294 482.777 137.118 461.573 126.402 440.633C116.208 420.713 105.942 400.547 93.0964 382.175C87.2284 373.787 80.5984 366.071 73.7524 358.481C67.0264 351.023 60.1984 343.505 54.9424 334.907C52.3804 330.707 50.2924 326.303 48.7924 321.617C48.1624 319.637 45.0484 320.477 45.6784 322.469Z" fill="#232323"/>
<path d="M43.1045 312.581C49.6505 339.953 66.8225 363.605 83.8025 385.721C89.6945 393.395 98.7845 401.297 102.288 410.201C106.05 419.753 107.022 430.547 109.524 440.435C112.842 453.551 116.16 466.667 119.478 479.783C121.266 486.851 123.271 494.315 128.323 499.559C137.203 508.769 151.465 507.473 163.123 504.305C175.729 500.879 188.857 496.637 199.423 488.819C207.199 483.071 222.384 475.637 219.606 463.247C217.992 456.035 210.805 451.793 205.44 446.729C195.654 437.489 191.118 423.995 186.367 411.317C177.835 388.553 167.484 365.783 155.088 344.825C136.86 314.009 114.738 283.469 81.5285 269.147" fill="#1D545D"/>
<path d="M40.7763 313.223C45.5463 332.747 55.4584 350.429 66.8524 366.821C72.4144 374.819 78.1444 382.877 84.4324 390.317C90.5464 397.553 97.7464 404.153 100.866 413.339C104.238 423.251 105.354 433.835 107.922 443.969C110.754 455.153 113.586 466.343 116.412 477.527C118.578 486.089 120.6 495.539 127.236 501.893C133.17 507.569 141.438 509.399 149.436 509.033C158.316 508.631 167.07 505.937 175.452 503.153C184.602 500.117 193.266 496.175 201.12 490.547C211.11 483.389 227.712 474.167 220.746 459.263C217.17 451.607 208.8 447.527 203.556 441.179C197.442 433.775 193.884 424.577 190.554 415.685C183.096 395.765 174.888 376.175 164.892 357.377C147.954 325.541 126.558 292.163 94.8844 273.275C90.9724 270.941 86.9104 268.877 82.7344 267.053C79.9084 265.817 77.4483 269.981 80.2924 271.229C112.632 285.359 134.19 314.585 151.776 344.015C162.444 361.865 171.522 380.615 179.316 399.887C185.898 416.165 190.338 435.503 203.37 448.103C208.596 453.155 217.5 457.919 217.512 466.181C217.518 472.925 211.056 477.809 206.076 481.313C199.752 485.765 193.428 490.355 186.42 493.673C178.062 497.633 168.978 500.453 159.99 502.601C152.358 504.425 143.616 505.433 136.212 502.163C127.584 498.347 124.476 489.473 122.268 480.989C119.604 470.747 117.072 460.469 114.474 450.203C111.96 440.279 110.064 430.289 107.796 420.317C106.758 415.751 105.516 411.125 103.44 406.907C101.58 403.133 98.9643 399.761 96.2763 396.545C90.3004 389.387 84.2403 382.469 78.6603 374.975C67.2123 359.597 56.2804 343.379 49.5304 325.319C47.8924 320.939 46.5304 316.475 45.4204 311.933C44.7004 308.921 40.0323 310.199 40.7763 313.223Z" fill="#1D545D"/>
<path d="M245.712 515.837C238.812 512.399 228.558 510.071 222.738 504.965C217.278 500.177 213.582 492.035 210.636 484.397C207.822 485.339 205.122 486.659 202.662 488.051C200.472 489.287 198.132 490.703 197.274 493.139C195.264 498.845 202.596 504.641 202.062 510.767C201.684 515.081 197.592 517.721 193.74 519.239C185.724 522.383 176.844 523.427 169.314 527.591C168.846 527.849 168.372 528.137 168 528.521C171.414 535.055 174.882 541.541 178.446 547.961C179.58 550.007 180.876 552.179 182.946 553.145C184.698 553.967 186.672 553.757 188.52 553.481C207.096 550.703 224.418 542.837 240.318 533.081C244.248 530.669 248.394 527.747 249.534 523.109C249.948 521.423 249.87 519.455 248.796 518.033C248.016 517.001 246.84 516.401 245.712 515.837Z" fill="#232323"/>
<path d="M246.93 513.749C240.168 510.467 232.554 508.799 226.242 504.611C219.318 500.015 215.85 491.195 212.964 483.761C212.52 482.609 211.326 481.601 209.988 482.075C204.894 483.875 196.794 486.761 194.934 492.509C193.056 498.311 197.826 502.811 199.302 508.007C201.438 515.531 190.932 517.835 185.7 519.317C179.292 521.135 171.552 522.479 166.284 526.817C165.438 527.513 165.444 528.857 165.906 529.745C168.78 535.235 171.69 540.707 174.672 546.137C176.898 550.193 179.052 555.083 184.11 555.989C188.61 556.793 194.154 555.029 198.51 553.973C203.982 552.641 209.352 550.895 214.59 548.819C224.448 544.919 234.132 540.053 243.012 534.239C246.654 531.857 250.218 528.881 251.616 524.603C253.164 519.827 251.256 515.969 246.93 513.749C244.164 512.333 241.716 516.503 244.488 517.925C254.238 522.929 237.126 532.247 233.178 534.491C225.546 538.829 217.62 542.681 209.352 545.645C205.374 547.073 201.33 548.309 197.226 549.305C195.168 549.803 193.098 550.247 191.016 550.625C189.036 550.985 186.462 551.747 184.476 551.141C182.502 550.541 181.47 548.399 180.528 546.737C179.382 544.721 178.29 542.675 177.18 540.635C174.78 536.207 172.416 531.761 170.082 527.297C169.956 528.275 169.83 529.253 169.704 530.225C172.332 528.065 176.292 527.057 179.496 526.085C182.808 525.077 186.174 524.255 189.48 523.241C194.754 521.633 201.156 519.527 203.628 514.085C205.98 508.901 202.872 504.053 200.646 499.475C199.302 496.709 198.582 493.967 201.282 491.795C204.12 489.509 207.876 487.925 211.278 486.725C210.288 486.161 209.298 485.597 208.302 485.039C211.41 493.043 214.992 501.857 221.886 507.377C228.456 512.639 237.048 514.307 244.488 517.919C247.278 519.275 249.732 515.111 246.93 513.749Z" fill="#232323"/>
<path d="M216.505 507.419C217.717 504.635 219.984 502.697 222.888 501.839C224.172 501.455 223.638 499.583 222.336 499.847C218.7 500.585 215.994 503.261 214.632 506.633C214.2 507.695 216.043 508.481 216.505 507.419Z" fill="white"/>
<path d="M225.385 512.195C226.111 510.209 227.437 508.559 229.183 507.377C230.317 506.609 229.279 504.773 228.097 505.517C225.817 506.951 224.233 509.105 223.357 511.637C222.907 512.927 224.923 513.455 225.385 512.195Z" fill="white"/>
<path d="M233.701 513.089C234.769 512.099 235.837 511.109 236.905 510.113C237.823 509.261 236.443 507.875 235.531 508.739C234.469 509.741 233.413 510.737 232.351 511.739C231.457 512.585 232.801 513.923 233.701 513.089Z" fill="white"/>
<path d="M79.8906 151.229C103.957 144.173 122.749 170.201 137.137 184.697C143.743 191.351 150.913 197.417 158.071 203.471C167.539 211.475 180.235 196.781 187.069 191.027C197.479 182.267 207.259 172.751 216.307 162.587C221.419 156.845 226.309 150.869 230.389 144.353C233.821 138.869 236.677 133.007 240.583 127.847C242.029 125.939 243.685 124.085 245.869 123.107C248.053 122.129 250.879 122.249 252.559 123.953C252.565 123.959 252.565 123.959 252.571 123.965C256.597 128.087 250.879 143.861 261.163 135.779C269.503 129.227 276.877 120.743 284.545 113.405C285.913 112.091 287.335 110.747 289.111 110.075C290.887 109.403 293.119 109.559 294.391 110.969C295.999 112.751 295.441 115.535 294.733 117.827C293.431 122.057 288.271 130.331 288.655 134.525C289.039 138.761 294.763 138.395 294.859 143.303C294.925 146.711 292.705 149.693 290.587 152.363C292.723 149.993 297.067 152.525 297.403 155.699C297.739 158.873 295.663 161.747 293.695 164.261C295.633 163.523 297.889 164.891 298.753 166.775C299.617 168.659 299.407 170.861 298.933 172.877C297.187 180.395 291.595 185.921 287.119 191.873C281.527 199.307 274.255 205.583 267.673 212.111C256.543 223.157 244.339 233.237 230.665 240.989C209.875 252.773 185.173 258.935 161.749 254.177C143.881 250.547 127.885 240.935 112.291 231.485" fill="white"/>
<path d="M80.3644 152.945C102.534 147.257 119.358 168.977 132.582 183.197C136.872 187.811 141.426 192.167 146.118 196.373C148.908 198.875 151.734 201.341 154.584 203.777C156.552 205.457 158.466 207.119 161.004 207.857C170.178 210.515 178.98 201.785 185.07 196.205C194.748 187.331 204.66 178.901 213.636 169.277C218.532 164.027 223.278 158.615 227.592 152.861C231.75 147.317 235.02 141.317 238.59 135.401C240.354 132.479 242.184 129.233 244.734 126.923C246.252 125.543 249.486 123.797 251.01 126.143C252.408 128.291 251.724 132.215 251.988 134.657C252.288 137.375 253.344 140.453 256.572 140.585C261.066 140.765 265.704 135.401 268.644 132.713C274.506 127.349 279.852 121.463 285.564 115.937C286.752 114.791 287.988 113.345 289.524 112.655C292.188 111.455 293.154 113.141 292.704 115.565C292.212 118.199 290.838 120.641 289.722 123.041C287.868 127.025 284.514 132.839 286.866 137.249C287.94 139.265 289.908 139.967 291.414 141.515C293.982 144.155 290.478 148.409 288.786 150.569C286.812 153.089 289.872 156.365 292.368 154.151C293.898 152.789 294.912 156.401 294.78 157.223C294.438 159.377 292.788 161.315 291.498 162.989C290.064 164.849 292.422 167.177 294.354 166.703C298.74 165.623 295.896 174.509 295.194 176.069C293.742 179.297 291.588 182.171 289.404 184.937C285.012 190.487 280.65 195.935 275.604 200.921C264.954 211.451 254.238 222.053 242.004 230.759C218.334 247.601 188.328 258.095 159.276 251.063C142.704 247.049 127.98 238.091 113.418 229.553C110.91 228.083 108.702 231.905 111.15 233.435C125.508 242.417 140.37 251.333 156.906 255.635C172.494 259.691 188.97 258.869 204.426 254.633C220.614 250.199 235.542 242.069 248.85 231.935C255.552 226.835 261.894 221.279 267.918 215.399C273.636 209.819 279.624 204.437 284.94 198.461C287.976 195.047 290.73 191.357 293.556 187.763C296.01 184.637 298.35 181.433 299.928 177.761C301.446 174.239 302.682 169.841 301.17 166.109C299.832 162.797 296.466 160.979 293.004 161.831C293.958 163.067 294.906 164.309 295.86 165.545C298.698 161.867 301.716 156.701 298.656 152.243C296.364 148.901 291.906 147.803 288.78 150.581C289.974 151.775 291.168 152.969 292.362 154.163C295.548 150.101 299.604 144.137 295.986 139.073C294.852 137.483 292.722 136.835 291.642 135.311C290.424 133.583 291.864 130.751 292.566 129.035C294.456 124.415 297.702 119.747 297.936 114.617C298.206 108.683 292.548 105.635 287.388 108.083C284.538 109.439 282.27 112.037 280.062 114.227C277.368 116.897 274.734 119.633 272.064 122.327C269.52 124.895 266.94 127.433 264.252 129.851C262.926 131.039 261.582 132.221 260.184 133.325C259.62 133.769 257.31 134.879 256.914 135.455C256.926 135.443 255.822 135.797 256.962 135.557C257.64 135.413 257.076 136.289 257.292 135.689C257.358 135.509 257.088 134.771 257.052 134.531C256.812 132.935 256.884 131.279 256.77 129.671C256.518 126.221 255.888 122.633 252.558 120.863C247.236 118.031 241.932 121.997 238.776 126.065C234.216 131.939 231.078 138.737 226.998 144.935C218.694 157.547 207.768 168.683 196.806 178.985C191.988 183.515 186.876 187.703 182.01 192.179C178.284 195.611 174.534 199.193 170.028 201.593C168.078 202.631 165.798 203.525 163.548 203.291C160.326 202.961 157.854 200.057 155.514 198.101C149.76 193.283 144.066 188.387 138.732 183.101C123.114 167.621 104.82 141.875 79.4044 149.519C77.2204 150.167 78.1264 153.521 80.3644 152.945Z" fill="#232323"/>
<path d="M98.1906 297.395C101.239 317.231 92.9766 336.815 88.2246 356.315C82.6806 379.067 81.8706 402.761 81.1386 426.233C79.7766 470.003 81.1026 514.355 78.7086 557.921C78.5826 560.255 78.3606 562.775 76.9206 564.545C75.7026 566.045 73.8366 566.717 72.0486 567.275C54.1206 572.879 35.1066 573.359 16.5426 571.523C11.9526 571.067 6.94859 570.245 3.89459 566.573C2.78459 565.235 1.99859 563.435 2.34059 561.683C2.59259 560.417 3.38459 559.367 4.15859 558.365C8.86259 552.257 17.0766 545.693 20.0886 538.559C24.0606 529.151 22.0026 515.297 21.1146 505.433C17.1966 461.819 16.1646 417.899 18.0366 374.099C19.7286 334.487 24.7986 292.319 48.7926 261.935" fill="white"/>
<path d="M96.6366 297.827C99.7986 320.123 89.0826 341.687 84.7026 363.095C80.2266 384.989 79.5906 407.489 78.9306 429.755C78.2526 452.711 78.3006 475.679 78.1026 498.641C78.0006 510.209 77.8506 521.783 77.5146 533.345C77.3526 539.009 77.1486 544.673 76.8846 550.331C76.7586 553.007 76.6566 555.689 76.4706 558.365C76.2546 561.467 75.4686 563.723 72.3606 564.851C61.9986 568.613 50.4486 569.879 39.5046 570.185C34.0866 570.335 28.6566 570.197 23.2506 569.831C18.4746 569.507 12.7506 569.615 8.4126 567.305C6.1866 566.123 3.67861 563.789 5.03461 561.083C6.03661 559.085 8.0166 557.291 9.5226 555.659C12.5526 552.395 15.7206 549.251 18.4326 545.705C23.9166 538.523 25.0086 530.051 24.7266 521.225C24.4206 511.433 23.0826 501.647 22.3446 491.879C21.4746 480.269 20.8026 468.647 20.3406 457.013C19.4226 433.931 19.3026 410.819 19.9926 387.731C21.1326 349.583 22.9926 308.111 43.0506 274.451C45.3906 270.521 47.9826 266.735 50.7726 263.111C52.3386 261.071 48.7986 258.311 47.1846 260.339C22.3086 291.599 17.4066 333.569 15.6786 372.167C14.5926 396.485 14.4426 420.851 15.1626 445.181C15.8526 468.401 17.6886 491.483 19.6686 514.619C20.4546 523.799 21.0966 534.017 15.5406 541.925C12.6786 545.999 9.00061 549.443 5.65861 553.115C2.98261 556.055 -0.803396 559.685 0.150604 564.059C2.2746 573.767 15.5886 573.857 23.2446 574.361C34.4466 575.099 45.7086 574.841 56.8086 573.101C62.4306 572.219 68.1606 571.055 73.5366 569.147C77.6886 567.677 80.0766 565.001 80.6766 560.597C81.4446 554.927 81.3666 549.041 81.5766 543.323C81.7986 537.263 81.9666 531.197 82.0926 525.137C82.5906 500.993 82.4466 476.837 82.7226 452.687C82.9986 428.915 83.1426 404.903 85.8786 381.263C87.2646 369.287 89.7306 357.599 92.9646 345.995C96.0066 335.081 99.3006 324.143 100.243 312.797C100.681 307.511 100.507 302.237 99.7506 296.987C99.4506 294.917 96.3486 295.793 96.6366 297.827Z" fill="#232323"/>
<path d="M97.6755 287.045C103.753 314.525 98.6535 343.301 93.0555 370.619C91.1115 380.093 86.3895 391.181 87.1335 400.721C87.9255 410.957 91.7715 421.085 93.8475 431.075C96.5955 444.323 99.3495 457.565 102.097 470.813C103.579 477.953 105.043 485.537 102.793 492.467C98.8395 504.635 85.4415 509.705 73.5735 511.949C60.7395 514.379 47.0775 516.299 34.1595 513.893C24.6495 512.123 7.74146 512.075 4.82546 499.721C3.12746 492.527 7.73547 485.573 10.3455 478.673C15.1095 466.085 13.2855 451.961 12.0195 438.485C9.73947 414.281 9.09147 389.273 11.0775 365.009C13.9995 329.327 20.5395 292.187 44.1435 264.785" fill="#1D545D"/>
<path d="M95.347 287.687C99.643 307.613 98.143 328.163 94.855 348.125C93.289 357.647 91.651 367.289 89.083 376.601C86.821 384.797 83.989 393.191 84.817 401.813C85.741 411.485 89.053 420.671 91.171 430.109C93.469 440.345 95.455 450.665 97.585 460.937C99.529 470.303 103.357 481.235 100.771 490.781C98.779 498.149 92.617 502.973 85.867 505.871C78.475 509.045 70.237 510.299 62.323 511.409C52.477 512.789 42.931 512.843 33.115 511.283C22.243 509.549 3.13905 508.223 7.53105 492.125C8.70105 487.841 10.885 483.917 12.4871 479.789C14.161 475.481 15.073 470.951 15.523 466.361C16.435 457.073 15.295 447.737 14.431 438.491C12.517 418.133 11.7611 397.637 12.7091 377.201C14.2931 343.037 18.8771 306.029 38.077 276.815C40.447 273.209 43.045 269.777 45.841 266.495C47.851 264.143 44.443 260.705 42.421 263.075C18.829 290.735 11.8991 327.383 8.85105 362.597C7.00305 383.987 7.11105 405.497 8.62905 426.905C9.36105 437.207 10.861 447.503 11.005 457.841C11.077 462.923 10.7651 468.035 9.55905 472.991C8.40105 477.743 6.19305 482.033 4.36305 486.545C1.49505 493.625 0.745049 501.827 6.54105 507.665C10.867 512.027 17.263 513.647 23.125 514.655C30.625 515.945 38.329 517.325 45.943 517.415C56.047 517.535 66.301 515.999 76.165 513.893C91.213 510.677 106.099 502.163 106.375 485.003C106.453 480.011 105.439 475.043 104.437 470.177C103.309 464.723 102.175 459.269 101.041 453.815C98.863 443.333 96.979 432.737 94.231 422.381C91.627 412.565 88.261 402.497 90.097 392.255C91.801 382.745 94.981 373.535 96.853 364.037C100.885 343.565 104.191 322.559 102.331 301.643C101.875 296.525 101.101 291.437 100.015 286.409C99.349 283.361 94.693 284.651 95.347 287.687Z" fill="#1D545D"/>
<path d="M98.7551 172.673C101.347 178.517 106.759 178.343 110.743 182.477C114.277 186.143 115.867 191.825 114.769 196.787C113.935 200.549 111.925 203.939 110.617 207.569C105.835 220.859 110.821 235.379 113.179 249.305C114.367 256.343 118.015 262.751 112.183 268.949C108.901 272.435 104.245 274.265 99.6671 275.657C78.6491 282.029 55.5191 281.219 34.9991 273.389C31.8011 272.171 28.5671 270.719 26.2451 268.205C21.2471 262.805 21.9071 254.411 23.1671 247.163C27.3791 222.905 35.0111 206.207 33.2171 181.655" fill="white"/>
<path d="M97.207 173.579C98.647 176.879 101.107 178.811 104.155 180.563C107.869 182.693 110.833 185.051 112.147 189.317C113.581 193.991 112.045 198.179 110.155 202.463C108.307 206.663 106.933 210.767 106.429 215.357C105.391 224.813 107.695 234.293 109.543 243.503C110.431 247.907 111.295 252.287 112.273 256.673C113.311 261.341 112.819 265.199 108.955 268.415C105.559 271.241 101.107 272.567 96.931 273.737C92.215 275.057 87.391 276.035 82.525 276.617C72.925 277.763 63.103 277.529 53.581 275.831C49.051 275.021 44.569 273.917 40.189 272.501C36.037 271.157 31.081 269.735 28.051 266.399C22.309 260.081 25.267 249.203 26.767 241.835C28.777 231.953 31.525 222.239 33.505 212.351C35.539 202.187 36.337 192.005 35.641 181.655C35.431 178.565 30.595 178.541 30.805 181.655C32.185 202.097 25.705 221.243 21.733 241.013C20.071 249.299 17.803 259.235 22.273 267.053C26.833 275.027 38.239 277.643 46.489 279.641C65.485 284.243 87.817 283.955 105.979 276.131C110.173 274.325 114.307 271.565 116.455 267.401C118.363 263.711 118.111 259.703 117.253 255.761C115.045 245.615 112.273 235.319 111.313 224.957C110.755 218.933 111.103 212.909 113.317 207.221C115.297 202.145 117.955 197.477 117.343 191.831C116.845 187.247 114.733 182.699 111.091 179.771C107.443 176.843 102.715 176.129 100.309 171.761C99.163 169.697 96.307 171.521 97.207 173.579Z" fill="#232323"/>
<path d="M104.604 341.249C107.13 338.087 109.62 334.955 111.198 331.199C112.758 327.485 113.364 323.435 113.676 319.439C114.396 310.301 114.786 300.869 114.642 291.707C114.6 289.061 110.802 289.133 110.58 291.707C109.866 300.041 110.004 308.459 109.602 316.811C109.41 320.813 109.062 324.815 107.832 328.655C106.59 332.537 104.406 336.011 102.222 339.419C101.328 340.835 103.518 342.605 104.604 341.249Z" fill="#232323"/>
<path d="M4.16459 558.371C8.86859 552.263 17.0826 545.699 20.0946 538.565C22.9206 531.875 22.6926 522.935 22.0086 514.781C24.9546 514.403 27.9546 514.415 30.7806 514.589C33.2886 514.745 36.0126 514.997 37.8486 516.815C42.1506 521.069 38.0766 529.487 41.2326 534.767C43.4526 538.487 48.2886 539.075 52.4166 538.757C61.0026 538.091 69.4446 535.157 78.0366 535.619C78.5706 535.649 79.1226 535.697 79.6266 535.877C79.4046 543.245 79.1106 550.595 78.7086 557.927C78.5826 560.261 78.3606 562.781 76.9206 564.551C75.7026 566.051 73.8366 566.723 72.0486 567.281C54.1206 572.885 35.1066 573.365 16.5426 571.529C11.9526 571.073 6.94859 570.251 3.89459 566.579C2.78459 565.241 1.99859 563.441 2.34059 561.689C2.59859 560.429 3.39659 559.373 4.16459 558.371Z" fill="#232323"/>
<path d="M5.87426 560.081C10.9563 553.637 17.9343 548.381 21.6543 540.929C25.6323 532.961 25.1283 523.403 24.4323 514.787C23.6283 515.591 22.8183 516.401 22.0143 517.205C25.4403 516.821 29.0463 516.677 32.4783 517.151C36.0123 517.637 37.4163 519.533 37.5663 522.983C37.7883 528.179 36.5883 533.957 40.7523 538.001C44.7783 541.901 51.0003 541.463 56.0943 540.779C59.7483 540.287 63.3483 539.531 66.9843 538.913C70.7043 538.277 75.2463 537.317 78.9903 538.223C78.3963 537.443 77.8083 536.669 77.2143 535.889C77.0703 540.539 76.9083 545.183 76.6983 549.827C76.5963 552.143 76.4823 554.465 76.3563 556.781C76.2543 558.635 76.3743 561.023 75.3243 562.649C74.0943 564.551 71.2743 565.031 69.2583 565.619C67.2783 566.189 65.2863 566.699 63.2763 567.155C58.7523 568.181 54.1743 568.919 49.5603 569.387C40.8183 570.269 32.0043 570.275 23.2443 569.687C18.6003 569.381 -0.395735 568.445 6.25226 559.607C8.12426 557.123 3.93027 554.705 2.07627 557.165C-0.857735 561.065 -0.707735 565.409 2.78427 568.961C5.79027 572.015 10.0503 573.131 14.1663 573.683C25.0803 575.153 36.3663 575.345 47.3283 574.421C52.9323 573.953 58.5183 573.149 64.0083 571.937C68.4123 570.965 74.5503 570.143 77.9703 566.957C81.3543 563.813 81.0963 558.695 81.3063 554.465C81.6183 548.279 81.8523 542.081 82.0383 535.889C82.0683 534.863 81.2703 533.801 80.2623 533.555C73.3323 531.881 65.3043 534.383 58.4643 535.547C53.2023 536.447 43.5063 538.385 42.4503 530.801C41.7543 525.791 43.7043 519.929 40.0503 515.669C36.0183 510.971 27.4803 511.757 22.0083 512.369C20.7963 512.507 19.4763 513.371 19.5903 514.787C20.2323 522.707 21.0483 532.013 17.0763 539.249C13.4103 545.927 7.12226 550.745 2.45426 556.667C0.552263 559.079 3.94826 562.523 5.87426 560.081Z" fill="#232323"/>
<path d="M213.067 158.993C208.477 173.771 202.219 188.141 194.305 201.449C190.147 208.439 188.455 209.273 180.421 207.089C172.783 205.013 165.301 202.289 158.089 199.025C157.339 198.683 156.577 198.329 155.959 197.783C154.447 196.451 154.074 194.177 154.5 192.209C154.92 190.241 156.007 188.489 157.045 186.761C165.721 172.349 172.075 157.037 178.273 141.461C178.801 140.135 179.365 138.755 180.445 137.819C183.007 135.599 186.937 136.883 190.027 138.263C195.421 140.675 200.82 143.081 206.214 145.493C209.256 146.849 212.598 148.529 213.679 151.679C214.5 154.031 213.805 156.611 213.067 158.993Z" fill="#1D545D"/>
<path d="M211.501 158.561C207.379 171.041 201.907 182.987 195.559 194.495C194.215 196.925 192.859 199.361 191.365 201.707C190.507 203.051 189.499 204.827 187.963 205.493C186.481 206.129 184.621 205.637 183.133 205.295C180.055 204.593 177.019 203.633 174.025 202.649C170.977 201.647 167.953 200.561 164.989 199.349C162.481 198.329 157.249 197.099 156.925 193.955C156.649 191.315 159.253 188.309 160.501 186.191C162.199 183.311 163.813 180.377 165.361 177.413C171.325 165.971 175.717 153.959 180.973 142.217C182.539 138.719 184.975 139.217 188.161 140.501C191.599 141.887 194.953 143.525 198.337 145.037C201.505 146.453 204.853 147.695 207.853 149.447C211.549 151.601 211.501 154.391 210.379 158.255C209.371 161.723 214.705 163.169 215.767 159.743C216.805 156.407 217.543 152.759 215.821 149.501C214.405 146.831 211.831 145.085 209.185 143.777C205.507 141.965 201.679 140.411 197.929 138.743C194.527 137.231 191.101 135.317 187.489 134.357C184.609 133.595 181.513 133.577 179.047 135.425C176.407 137.399 175.525 140.927 174.355 143.849C171.277 151.541 168.127 159.209 164.611 166.715C161.185 174.041 156.829 180.845 153.277 188.081C151.885 190.919 151.171 194.123 152.479 197.129C153.787 200.129 156.661 201.149 159.493 202.349C166.813 205.433 174.445 208.373 182.227 210.035C186.643 210.977 190.477 210.581 193.477 206.927C198.643 200.633 202.207 192.335 205.465 184.931C209.095 176.663 212.059 168.089 214.627 159.437C215.233 157.409 212.155 156.587 211.501 158.561Z" fill="#1D545D"/>
<path d="M28.0685 536.483C25.3145 534.029 21.7505 532.907 18.1325 533.807C16.8125 534.137 17.4005 536.003 18.6845 535.799C21.5525 535.349 24.3965 536.045 26.6225 537.929C27.6125 538.769 29.0585 537.365 28.0685 536.483Z" fill="white"/>
<path d="M22.4048 544.793C20.4848 542.885 18.1268 541.703 15.4328 541.403C14.2388 541.271 13.9448 543.341 15.1448 543.515C17.3528 543.839 19.2968 544.727 20.9108 546.281C21.8888 547.217 23.3648 545.747 22.4048 544.793Z" fill="white"/>
<path d="M14.3403 548.837C12.9483 548.399 11.5623 547.961 10.1703 547.523C8.97633 547.145 8.45433 549.035 9.65433 549.401C11.0463 549.827 12.4383 550.253 13.8363 550.679C15.0063 551.039 15.5043 549.209 14.3403 548.837Z" fill="white"/>
<path d="M54.259 153.443C32.905 175.403 5.40699 205.391 9.96699 235.685C11.407 245.267 14.341 254.609 18.517 263.351C28.603 284.441 48.649 301.061 71.635 305.951C82.825 308.333 95.161 309.461 106.213 306.467C120.013 302.729 132.991 295.835 143.629 286.253C144.481 285.485 145.315 284.705 146.137 283.901C153.025 277.175 160.315 268.739 165.475 260.627C170.173 253.241 174.577 246.383 184.705 246.989C186.757 247.109 189.055 247.505 190.663 246.227C193.213 244.199 191.779 240.137 190.147 237.311C193.357 239.849 198.583 239.561 201.199 236.411C203.815 233.261 202.861 227.717 199.171 225.947C203.269 227.891 208.591 224.897 209.863 220.541C211.135 216.185 208.927 211.319 205.315 208.565C209.119 209.531 212.599 205.205 212.299 201.293C211.999 197.381 209.245 194.135 206.479 191.345C199.441 184.259 191.287 178.097 181.963 174.509C176.815 172.529 163.417 172.955 165.295 164.129C165.511 163.115 165.967 162.071 165.673 161.075C165.049 158.939 161.965 159.077 159.883 159.851C148.999 163.895 140.497 172.475 132.811 181.181C125.455 189.515 118.495 198.197 111.967 207.197C106.171 215.189 100.507 223.175 95.611 231.749C94.837 233.111 86.353 250.061 85.261 249.839C81.913 247.925 77.299 246.473 74.533 243.809C71.689 241.067 69.991 236.207 68.137 232.739C59.155 215.933 57.619 207.215 58.645 188.165" fill="white"/>
<path d="M52.8487 152.033C36.4627 168.665 19.2427 186.575 10.9867 208.877C7.01473 219.605 6.34873 230.435 8.67673 241.601C11.1667 253.553 15.8287 265.379 22.8247 275.429C36.1927 294.629 56.4967 306.599 79.5487 309.809C92.6467 311.633 104.977 310.277 117.265 305.375C128.635 300.833 139.093 294.215 147.889 285.677C153.253 280.469 158.233 274.847 162.751 268.895C166.501 263.951 169.339 258.017 173.761 253.625C175.579 251.819 177.715 250.445 180.235 249.863C183.403 249.131 186.685 250.271 189.805 249.443C196.315 247.715 194.785 240.443 192.361 236.021C191.185 237.197 190.009 238.373 188.833 239.549C193.339 242.747 200.395 242.237 203.641 237.443C206.707 232.913 205.249 226.397 200.479 223.709C199.807 225.299 199.141 226.883 198.469 228.473C203.635 230.549 209.641 227.513 211.855 222.581C214.381 216.965 211.669 210.431 207.151 206.735C206.305 208.187 205.459 209.645 204.613 211.097C209.005 211.817 212.803 209.297 214.309 205.115C216.013 200.381 213.673 195.701 210.673 192.077C203.941 183.953 194.497 177.017 184.813 172.883C181.747 171.575 178.675 171.035 175.429 170.345C173.161 169.859 168.913 169.271 167.899 166.763C167.179 164.981 168.559 162.959 168.289 161.087C168.013 159.167 166.783 157.721 164.947 157.091C160.759 155.657 155.815 158.531 152.299 160.529C142.531 166.085 134.905 174.683 127.681 183.119C119.785 192.341 112.441 202.001 105.433 211.907C100.213 219.281 95.2987 226.811 91.1347 234.827C89.6167 237.749 88.0867 240.677 86.4727 243.545C85.8307 244.685 85.1887 245.837 84.4687 246.929C84.3067 247.175 83.9527 247.667 83.9587 247.685C83.9947 247.943 81.8587 248.771 84.7807 247.577C86.5087 246.869 85.2607 246.965 84.2467 246.473C81.6847 245.237 78.8047 244.205 76.6327 242.309C74.6407 240.569 73.4827 238.019 72.3607 235.679C69.8767 230.495 67.0207 225.479 64.9147 220.115C60.8587 209.777 60.4687 199.151 60.9487 188.177C61.0807 185.213 56.5387 185.243 56.3587 188.177C55.8067 197.273 55.6567 206.477 58.0567 215.345C60.4687 224.255 64.9567 232.967 69.4147 241.013C71.6467 245.033 74.7127 247.517 78.8167 249.497C81.3307 250.715 85.0507 253.811 87.5467 251.273C89.1967 249.593 90.3067 247.121 91.4347 245.093C92.9287 242.399 94.3627 239.663 95.7907 236.927C99.7927 229.241 104.551 222.029 109.555 214.961C116.533 205.109 123.853 195.527 131.737 186.377C138.673 178.325 145.975 170.027 155.383 164.813C157.321 163.739 159.679 162.293 161.923 162.005C163.555 161.795 163.081 162.167 162.769 163.433C162.553 164.315 162.469 165.287 162.523 166.193C162.691 169.223 164.545 171.611 167.131 173.063C170.125 174.749 173.617 175.301 176.941 175.955C181.513 176.855 185.587 178.763 189.583 181.157C194.833 184.295 199.579 188.195 203.929 192.491C205.999 194.531 208.225 196.715 209.233 199.499C210.007 201.641 209.431 206.609 206.017 206.045C203.761 205.673 201.229 208.565 203.479 210.407C206.191 212.627 208.489 216.191 207.355 219.839C206.371 223.019 202.885 224.633 199.873 223.427C197.101 222.311 195.337 226.769 197.863 228.191C200.155 229.481 200.881 232.751 199.117 234.821C197.137 237.149 193.681 236.651 191.449 235.079C189.235 233.513 186.757 236.501 187.921 238.607C189.079 240.707 190.873 244.067 187.405 244.571C184.873 244.937 182.275 244.253 179.677 244.751C175.519 245.549 171.937 247.967 169.159 251.099C165.985 254.681 163.693 258.923 160.963 262.835C157.315 268.055 153.193 272.951 148.831 277.589C132.577 294.863 109.975 307.403 85.6867 305.597C63.6967 303.965 43.6927 294.173 29.8027 276.887C22.7887 268.163 17.9407 257.867 14.8567 247.139C11.7487 236.327 10.7407 225.743 13.8607 214.823C20.5927 191.261 39.1507 172.085 55.6747 154.841C57.4387 152.999 54.6547 150.197 52.8487 152.033Z" fill="#232323"/>
<path d="M48.6478 151.379C33.1198 157.895 21.5338 171.905 15.3478 187.565C9.16779 203.225 7.92579 220.445 8.83779 237.257C9.34779 246.677 10.8958 255.995 14.2498 264.791C14.8018 266.243 15.3838 267.725 15.4198 269.279C15.4558 270.773 14.9818 272.231 14.7538 273.713C13.3258 283.043 21.4498 287.981 29.7778 288.281C31.2778 288.335 32.9218 288.233 34.0318 287.231C34.9318 286.415 35.2918 285.179 35.6458 284.015C39.5578 271.229 47.9458 259.859 59.0098 252.347C62.5378 249.953 66.4078 247.913 70.6138 247.205C73.9258 246.647 77.8558 246.677 79.8718 243.983C81.9778 241.163 80.5018 236.969 77.9818 234.509C75.4618 232.049 72.1078 230.633 69.4198 228.359C58.0018 218.717 57.9118 201.725 58.6438 188.183" fill="white"/>
<path d="M48.1202 149.459C29.4242 157.151 16.7942 174.185 10.9082 193.145C7.37422 204.533 6.10821 216.569 6.13821 228.461C6.16821 240.245 7.23021 252.215 11.0882 263.423C12.1442 266.495 13.0802 268.619 12.5102 271.931C12.0902 274.373 11.8562 276.731 12.4322 279.173C13.3322 282.983 16.0322 286.103 19.3682 288.041C22.9082 290.099 27.5102 291.245 31.6022 290.831C37.2422 290.261 37.8362 285.131 39.5402 280.745C43.3322 270.983 50.0282 262.205 58.4342 255.965C62.8682 252.671 67.5002 250.271 73.0082 249.491C77.2922 248.879 81.9422 247.673 83.1962 242.915C84.5462 237.803 80.9642 233.249 77.0642 230.471C72.2522 227.051 68.0402 224.393 65.1962 219.005C60.3122 209.735 60.5942 198.371 60.9362 188.189C61.0382 185.213 56.5562 185.273 56.3462 188.189C55.1822 204.449 56.1962 223.025 71.2442 232.817C73.6322 234.371 81.7022 239.567 77.1002 243.029C75.4082 244.301 72.7622 244.247 70.7522 244.553C68.4422 244.907 66.2762 245.567 64.1282 246.491C55.6982 250.133 48.4322 256.901 42.9422 264.143C40.1222 267.863 37.7222 271.889 35.8322 276.155C34.9862 278.069 34.2122 280.013 33.5522 281.993C33.1802 283.121 32.9162 284.909 31.7822 285.539C30.9182 286.019 29.1842 285.689 28.2062 285.575C24.5702 285.143 20.5922 283.637 18.4802 280.475C15.7322 276.365 18.5162 272.081 17.7542 267.683C17.3582 265.397 16.2902 263.249 15.5582 261.059C14.6462 258.323 13.8962 255.533 13.2842 252.719C12.1022 247.265 11.4962 241.727 11.2142 236.159C10.6622 225.227 10.9982 214.163 13.1582 203.411C17.3942 182.315 29.4002 162.185 49.6322 153.101C51.6902 152.189 50.2142 148.595 48.1202 149.459Z" fill="#232323"/>
<path d="M85.9146 96.3108C88.2606 95.1648 90.9306 94.6848 93.5346 94.9428C95.7606 95.1648 97.9926 95.9628 99.5706 97.5468C101.149 99.1308 101.953 101.579 101.227 103.691C100.855 104.783 100.117 105.713 99.2886 106.517C96.6786 109.043 93.0366 110.423 89.4066 110.411C85.7766 110.399 82.1886 109.019 79.3926 106.703" fill="#232323"/>
<path d="M86.9946 98.1587C89.9106 96.9047 93.6366 96.5447 96.4986 98.1347C99.8946 100.013 99.5406 103.439 96.6666 105.587C91.6806 109.325 85.3566 107.999 80.6046 104.627C78.3846 103.049 75.5826 106.649 77.6766 108.425C81.5586 111.713 86.4366 113.465 91.5486 112.787C96.0126 112.199 101.155 109.583 103.141 105.317C105.031 101.267 102.919 96.6047 99.2286 94.4087C94.8186 91.7807 89.3106 92.4107 84.8406 94.4747C82.3266 95.6327 84.5166 99.2267 86.9946 98.1587Z" fill="#232323"/>
<path d="M55.9271 121.055C57.0011 126.545 58.4351 131.927 60.3311 137.183C61.9151 141.575 63.3251 145.637 63.1091 150.377C63.0371 151.967 62.8511 153.551 62.6171 155.129C62.3651 156.851 61.4891 159.011 62.4851 160.583C63.6311 162.395 66.1811 163.997 67.8611 165.299C69.8411 166.841 71.9171 168.257 74.0771 169.541C75.7271 170.519 77.4431 171.431 79.3091 171.875C81.1751 172.319 83.2211 172.247 84.9131 171.341C87.8771 169.757 89.0471 166.019 88.8971 162.659C88.7471 159.305 87.5771 156.077 87.0851 152.753C86.8631 151.247 86.7851 149.675 87.2771 148.241C88.3271 145.169 92.2631 144.263 94.6031 142.403C97.1891 140.351 99.2351 137.585 100.375 134.483C102.907 127.595 101.377 119.657 97.5551 113.393C95.9891 110.831 94.0811 108.515 91.9331 106.421C84.7331 99.3826 73.8911 97.4506 64.8371 101.861C58.7771 104.819 53.8571 110.429 55.9271 121.055Z" fill="white"/>
<path d="M54.073 121.565C54.751 125.603 55.549 129.623 56.731 133.553C57.955 137.621 59.701 141.587 60.415 145.787C61.087 149.735 60.295 153.383 59.755 157.265C59.233 161.015 61.189 163.277 63.979 165.467C69.121 169.505 75.811 175.523 82.873 174.611C90.193 173.663 92.197 166.025 91.201 159.743C90.715 156.689 88.063 151.079 90.289 148.301C91.201 147.161 92.893 146.579 94.123 145.865C95.473 145.085 96.709 144.173 97.831 143.087C102.901 138.179 104.887 131.081 104.065 124.175C102.433 110.471 90.901 98.0266 76.915 96.9406C70.255 96.4246 63.001 98.6266 58.129 103.301C53.029 108.191 52.249 115.079 53.455 121.733C54.043 124.991 58.963 123.599 58.411 120.365C57.553 115.379 58.213 110.351 62.101 106.805C65.797 103.433 71.125 101.963 76.045 102.167C88.081 102.665 98.317 114.329 98.947 126.077C99.253 131.783 97.069 137.741 92.089 140.915C87.805 143.645 83.965 145.553 84.301 151.391C84.571 156.011 89.389 166.073 83.605 169.103C80.617 170.669 76.939 168.287 74.455 166.769C71.869 165.191 69.397 163.409 66.985 161.567C65.113 160.139 64.285 159.527 64.693 157.133C64.945 155.675 65.191 154.229 65.347 152.759C65.713 149.279 65.467 145.901 64.561 142.517C62.581 135.101 59.533 128.051 57.787 120.539C57.217 118.091 53.671 119.165 54.073 121.565Z" fill="#232323"/>
<path d="M54.073 121.565C54.751 125.603 55.549 129.623 56.731 133.553C57.955 137.621 59.701 141.587 60.415 145.787C61.087 149.735 60.295 153.383 59.755 157.265C59.233 161.015 61.189 163.277 63.979 165.467C69.121 169.505 75.811 175.523 82.873 174.611C90.193 173.663 92.197 166.025 91.201 159.743C90.715 156.689 88.063 151.079 90.289 148.301C91.201 147.161 92.893 146.579 94.123 145.865C95.473 145.085 96.709 144.173 97.831 143.087C102.901 138.179 104.887 131.081 104.065 124.175C102.433 110.471 90.901 98.0266 76.915 96.9406C70.255 96.4246 63.001 98.6266 58.129 103.301C53.029 108.191 52.249 115.079 53.455 121.733C54.043 124.991 58.963 123.599 58.411 120.365C57.553 115.379 58.213 110.351 62.101 106.805C65.797 103.433 71.125 101.963 76.045 102.167C88.081 102.665 98.317 114.329 98.947 126.077C99.253 131.783 97.069 137.741 92.089 140.915C87.805 143.645 83.965 145.553 84.301 151.391C84.571 156.011 89.389 166.073 83.605 169.103C80.617 170.669 76.939 168.287 74.455 166.769C71.869 165.191 69.397 163.409 66.985 161.567C65.113 160.139 64.285 159.527 64.693 157.133C64.945 155.675 65.191 154.229 65.347 152.759C65.713 149.279 65.467 145.901 64.561 142.517C62.581 135.101 59.533 128.051 57.787 120.539C57.217 118.091 53.671 119.165 54.073 121.565Z" fill="#232323"/>
<path d="M94.0865 114.371C91.4945 114.785 89.0045 116.075 89.1785 119.063C89.2505 120.293 89.8265 121.409 90.5765 122.363C91.1225 123.059 92.1125 123.647 92.5565 124.379C93.1445 124.625 93.2285 124.967 92.8025 125.393C92.3885 125.693 91.9565 125.969 91.5125 126.221C90.1085 127.073 91.3385 129.125 92.7905 128.405C94.6085 127.499 96.9605 125.969 95.4845 123.719C94.8005 122.687 93.5705 122.093 92.7305 121.199C92.0045 120.425 91.0325 119.195 91.3925 118.019C91.8185 116.639 93.4085 116.363 94.5785 116.117C95.7365 115.883 95.2265 114.191 94.0865 114.371Z" fill="#232323"/>
<path d="M83.1127 122.465C83.1967 122.537 83.2807 122.609 83.3707 122.669C83.3107 122.597 83.2567 122.519 83.2147 122.435C83.2147 122.261 83.2147 122.093 83.2147 121.919C83.5747 121.793 83.9347 121.667 84.2947 121.541C84.3247 121.565 84.3547 121.589 84.3847 121.613C84.3907 121.619 84.2227 121.409 84.3127 121.541C84.3907 121.649 84.3007 121.517 84.2947 121.493C84.2647 121.415 84.3487 121.625 84.3487 121.655C84.3907 121.943 84.0787 122.147 83.8267 121.973C83.7367 121.907 83.7487 121.865 83.7067 121.763C83.6107 121.535 83.6767 121.721 83.6707 121.829C83.6707 121.871 83.6647 121.913 83.6647 121.949C83.6587 122.033 83.6587 122.027 83.6647 121.925C83.7007 121.895 84.1147 121.475 83.8327 121.643C83.5267 121.829 84.2467 121.625 84.2647 121.619C84.2947 121.631 84.3247 121.649 84.3547 121.661C84.2587 121.619 84.1627 121.577 84.0667 121.541C83.8927 121.475 83.7067 121.427 83.5207 121.379C82.6507 121.151 81.8287 122.129 82.3267 122.933C82.7587 123.635 83.5927 124.175 84.4447 123.971C85.2967 123.767 85.9147 122.975 85.9627 122.117C86.0047 121.337 85.7587 120.551 85.0627 120.131C84.4207 119.741 83.6167 119.765 83.0167 120.221C81.9547 121.031 82.1227 122.633 83.2867 123.257C83.9827 123.623 84.8707 123.317 85.0747 122.525C85.2907 121.697 84.5947 120.893 83.7607 120.899C83.0167 120.911 82.4887 121.931 83.1127 122.465Z" fill="#232323"/>
<path d="M96.2767 119.465C96.3607 119.537 96.4447 119.609 96.5347 119.669C96.4747 119.597 96.4207 119.519 96.3787 119.435C96.3787 119.261 96.3787 119.093 96.3787 118.919C96.7387 118.793 97.0987 118.667 97.4587 118.541C97.4887 118.565 97.5187 118.589 97.5487 118.613C97.5547 118.619 97.3867 118.409 97.4767 118.541C97.5547 118.649 97.4647 118.517 97.4587 118.493C97.4287 118.415 97.5127 118.625 97.5127 118.655C97.5547 118.943 97.2427 119.147 96.9907 118.973C96.9007 118.907 96.9127 118.865 96.8707 118.763C96.7747 118.535 96.8407 118.721 96.8347 118.829C96.8347 118.871 96.8287 118.913 96.8287 118.949C96.8227 119.033 96.8227 119.027 96.8287 118.925C96.8647 118.895 97.2787 118.475 96.9967 118.643C96.6907 118.829 97.4107 118.625 97.4287 118.619C97.4587 118.631 97.4887 118.649 97.5187 118.661C97.4227 118.619 97.3267 118.577 97.2307 118.541C97.0567 118.475 96.8707 118.427 96.6847 118.379C95.8147 118.151 94.9927 119.129 95.4907 119.933C95.9227 120.635 96.7567 121.175 97.6087 120.971C98.4607 120.767 99.0787 119.975 99.1267 119.117C99.1687 118.337 98.9227 117.551 98.2267 117.131C97.5847 116.741 96.7807 116.765 96.1807 117.221C95.1187 118.031 95.2867 119.633 96.4507 120.257C97.1467 120.623 98.0347 120.317 98.2387 119.525C98.4547 118.697 97.7587 117.893 96.9247 117.899C96.1747 117.911 95.6527 118.931 96.2767 119.465Z" fill="#232323"/>
<path d="M75.8708 147.059C80.8688 149.195 86.9828 149.447 91.8008 146.513C94.0808 145.127 92.6228 141.245 89.9408 142.097C85.6928 143.441 81.8228 144.347 77.3108 143.663C75.4388 143.381 73.7528 146.153 75.8708 147.059Z" fill="#232323"/>
<path d="M80.8923 119.561C82.1463 118.511 84.0603 118.763 85.5724 118.763C87.1143 118.757 87.0483 116.567 85.5724 116.411C83.3703 116.183 81.0664 116.447 79.6024 118.271C78.8764 119.183 79.9803 120.323 80.8923 119.561Z" fill="#232323"/>
<path d="M63.049 134.963C62.191 132.845 61.129 130.871 60.589 128.597C60.157 126.767 60.385 124.601 61.819 123.389C63.121 122.291 65.107 122.297 66.637 123.041C68.197 123.803 70.993 126.137 71.401 127.943C71.659 125.783 71.263 123.545 70.303 121.601C69.319 119.609 66.811 117.311 67.687 114.905C68.647 112.283 72.385 112.037 74.647 112.067C80.401 112.133 85.663 112.157 91.165 110.627C96.661 109.097 101.647 109.001 105.667 104.297C106.681 103.115 107.533 101.663 107.491 100.109C107.377 96.0105 102.847 96.0885 100.723 94.0485C98.095 91.5225 96.625 88.3665 93.487 86.1225C87.715 82.0005 80.287 80.1165 73.261 81.2145C62.299 82.9305 52.885 91.3905 49.219 101.867C48.307 104.477 47.755 107.327 46.393 109.757C44.875 112.463 42.721 112.433 40.039 113.663C34.255 116.315 28.879 120.155 25.219 125.429C20.749 131.873 19.201 140.645 22.567 147.731C25.147 153.167 30.325 157.097 36.019 159.035C40.033 160.403 44.305 160.853 48.529 160.739C52.351 160.637 56.755 161.543 60.139 159.239C62.827 157.409 63.889 153.977 64.351 150.761C64.933 146.735 64.855 142.613 64.147 138.611C63.919 137.303 63.517 136.109 63.049 134.963Z" fill="#232323"/>
<path d="M64.9866 134.429C64.2246 132.419 61.7466 128.207 62.8386 125.987C64.2486 123.131 68.4006 126.845 68.9766 128.597C69.8886 131.357 73.6506 130.733 73.8966 127.931C74.0886 125.711 73.8366 123.527 73.0206 121.445C72.4746 120.053 69.5106 116.723 70.4706 115.427C71.3286 114.269 74.5446 114.683 75.7806 114.695C78.7326 114.725 81.6846 114.725 84.6186 114.431C89.2806 113.963 93.9846 112.787 98.4846 111.497C102.553 110.327 106.447 108.137 108.721 104.441C110.671 101.273 110.455 97.2526 107.401 94.9006C106.177 93.9586 104.725 93.5566 103.405 92.7886C101.581 91.7206 100.381 89.7946 99.0666 88.1806C93.1806 80.9326 83.0406 77.5606 73.8846 78.6766C65.2326 79.7326 57.4686 84.6046 52.1766 91.4626C49.3026 95.1826 47.5206 99.2686 46.0326 103.691C45.2406 106.049 44.7366 108.917 42.3126 110.087C40.3026 111.053 38.1666 111.677 36.1806 112.739C27.9246 117.155 20.8626 124.415 18.8466 133.799C16.8846 142.913 20.0346 151.841 27.5346 157.433C31.8186 160.625 36.9006 162.431 42.1806 163.067C45.0486 163.409 47.8986 163.301 50.7726 163.379C53.2866 163.445 55.8846 163.583 58.3386 162.893C63.5106 161.435 65.8566 156.815 66.7146 151.865C67.7166 146.093 67.6986 139.781 65.5686 134.255C64.3626 131.123 59.2626 132.491 60.4866 135.653C62.1966 140.069 62.3706 144.965 61.9086 149.645C61.4166 154.571 59.2926 158.039 54.0186 158.177C45.6426 158.399 36.3186 158.231 29.5626 152.585C22.7646 146.903 21.7026 137.705 25.4646 129.941C29.2746 122.069 36.6366 117.977 44.3046 114.683C47.8026 113.177 49.3146 110.045 50.3826 106.535C51.5766 102.629 52.7106 99.0826 55.0446 95.6686C59.4606 89.2186 66.6786 84.3706 74.5206 83.4826C78.9066 82.9846 83.4246 83.7166 87.4626 85.4986C91.4046 87.2386 93.9486 89.8126 96.5586 93.1486C97.5966 94.4746 98.6466 95.8246 100.069 96.7606C101.161 97.4806 102.427 97.8406 103.549 98.5006C107.569 100.883 101.029 105.137 98.6406 106.001C94.4766 107.501 89.5266 108.611 85.1466 109.109C80.6766 109.619 76.1106 108.977 71.6766 109.619C68.4066 110.093 65.0406 112.001 64.8786 115.691C64.7886 117.737 65.8806 119.531 66.9666 121.169C68.3826 123.317 69.0306 125.333 68.8686 127.937C70.5066 127.715 72.1506 127.493 73.7886 127.271C72.1866 122.789 66.3666 118.511 61.5786 120.761C55.1586 123.779 59.2446 131.567 61.2846 135.983C62.2566 138.023 65.7966 136.565 64.9866 134.429Z" fill="#232323"/>
<path d="M21.0787 257.303C17.2207 260.699 14.3287 265.367 13.9567 270.563C13.8007 272.729 16.9987 272.987 17.6107 271.055C18.9367 266.849 20.6287 263.171 23.9407 260.159C25.8667 258.401 23.0167 255.593 21.0787 257.303Z" fill="#232323"/>
<path d="M182.929 462.017C189.265 458.591 195.787 453.545 199.063 446.963C200.017 445.037 197.623 442.949 195.991 444.593C191.071 449.543 186.733 454.547 180.811 458.399C178.555 459.863 180.541 463.307 182.929 462.017Z" fill="#232323"/>
<path d="M33.8346 474.833C28.5126 474.671 23.6046 473.147 19.1046 470.315C16.4646 468.647 14.2266 472.685 16.6926 474.443C21.9186 478.163 28.0326 479.489 34.3446 478.601C36.5526 478.289 35.9046 474.899 33.8346 474.833Z" fill="#232323"/>
<path d="M201.504 155.201C200.448 156.281 200.358 157.979 201.216 159.209C202.182 160.595 203.994 161.237 205.524 160.307C206.82 159.521 207.282 157.865 206.844 156.467C206.658 155.861 206.322 155.309 205.854 154.883C205.086 154.181 204.102 154.001 203.106 154.229C202.242 154.427 201.516 155.375 201.552 156.269C201.588 157.121 202.17 158.165 203.106 158.309C203.544 158.375 202.896 158.189 202.902 158.183C202.932 158.165 203.376 158.537 202.938 158.195C202.476 157.835 203.124 158.483 202.77 158.027C202.422 157.577 202.872 158.357 202.656 157.829C202.452 157.343 202.68 157.847 202.65 157.889C202.632 157.751 202.614 157.613 202.596 157.469C202.602 157.523 202.602 157.583 202.602 157.637C202.62 157.499 202.644 157.355 202.662 157.217C202.65 157.271 202.638 157.325 202.626 157.373C202.68 157.247 202.734 157.121 202.788 156.995C202.68 157.181 202.752 157.097 202.998 156.749C202.752 156.983 203.496 156.443 203.184 156.617C203.352 156.509 203.532 156.449 203.724 156.449C203.952 156.431 203.988 156.425 203.832 156.431C204.24 156.503 204.354 156.515 204.18 156.473C204.018 156.425 204.114 156.473 204.474 156.605C204.156 156.329 204.57 156.659 204.594 156.719C204.546 156.677 204.504 156.629 204.462 156.581C204.534 156.671 204.606 156.761 204.672 156.851C204.636 156.797 204.606 156.743 204.576 156.683C204.624 156.791 204.666 156.899 204.714 157.001C204.66 156.791 204.666 156.887 204.732 157.277C204.732 157.127 204.72 157.157 204.702 157.367C204.666 157.577 204.66 157.607 204.696 157.463C204.636 157.685 204.522 157.877 204.354 158.033C204.696 157.595 204.942 157.193 204.942 156.611C204.942 156.119 204.72 155.531 204.354 155.189C203.55 154.469 202.29 154.391 201.504 155.201Z" fill="#232323"/>
<path d="M194.539 157.523C197.113 157.523 197.119 153.521 194.539 153.521C191.959 153.521 191.953 157.523 194.539 157.523Z" fill="#232323"/>
<path d="M272.263 155.663C270.151 147.491 265.177 139.151 257.695 134.849C255.277 133.457 252.439 136.865 254.641 138.809C260.521 144.005 265.507 149.237 268.255 156.767C269.161 159.251 272.947 158.297 272.263 155.663Z" fill="#232323"/>
<path d="M98.7787 318.497C97.2007 333.305 94.3627 348.233 91.3807 362.819C88.5367 376.709 83.5327 390.713 86.9287 404.927C88.5427 411.677 90.8947 418.247 92.6167 424.973C94.3927 431.921 95.8687 438.947 97.0447 446.021C98.7607 456.395 99.8167 466.943 101.023 477.389C101.917 485.135 103.129 497.399 93.7867 500.459C90.7207 501.461 91.9747 506.183 95.1247 505.319C103.987 502.889 106.813 494.537 106.915 486.137C107.023 476.891 105.109 467.381 104.077 458.207C102.439 443.711 99.5947 429.365 95.4907 415.367C93.3427 408.053 90.6067 400.817 90.8887 393.071C91.1707 385.247 93.6067 377.525 95.1847 369.893C96.9187 361.511 98.4007 353.063 99.6007 344.591C100.831 335.897 101.437 327.215 102.283 318.491C102.487 316.253 99.0127 316.289 98.7787 318.497Z" fill="#232323"/>
<path d="M72.6604 481.451C73.7524 481.085 74.8384 480.725 75.9304 480.359C76.8184 480.065 77.4004 479.159 77.1424 478.223C76.9024 477.353 75.9004 476.711 75.0064 477.011C73.9144 477.377 72.8284 477.737 71.7364 478.103C70.8484 478.397 70.2664 479.303 70.5244 480.239C70.7584 481.103 71.7664 481.745 72.6604 481.451Z" fill="#232323"/>
<path d="M54.2344 315.953C50.2024 327.149 48.5224 339.053 49.2724 350.927C49.6264 356.543 50.7184 361.973 51.8764 367.463C52.4584 370.235 53.0464 373.085 52.8664 375.935C52.6744 379.037 51.2344 381.251 49.8424 383.915C48.8524 385.811 48.1564 387.815 48.5404 389.975C48.9604 392.327 51.1264 394.061 51.3604 396.383C51.6064 398.783 49.6804 401.321 48.7084 403.385C47.6284 405.677 46.8844 408.011 46.7764 410.561C46.5784 415.343 48.3064 419.951 48.9664 424.643C49.5124 428.537 49.7884 432.479 50.0044 436.403C50.4964 445.169 50.8384 454.163 50.2144 462.929C50.0224 465.599 54.5104 466.265 54.9424 463.571C56.1424 456.065 55.9744 448.439 55.6804 440.867C55.3744 433.055 54.8224 425.261 53.1124 417.623C52.4104 414.467 51.6904 411.197 52.5964 408.005C53.3104 405.491 54.8884 403.289 55.7944 400.841C56.4904 398.951 56.8564 396.839 56.3764 394.841C55.8424 392.603 53.3824 390.575 53.5144 388.301C53.6464 386.045 55.7704 383.771 56.5864 381.683C57.5464 379.223 57.8284 376.553 57.6724 373.925C57.3604 368.477 55.4404 363.269 54.4444 357.935C51.8764 344.231 53.1364 330.047 57.5884 316.871C58.3264 314.735 54.9904 313.859 54.2344 315.953Z" fill="white"/>
<path d="M116.754 356.777C123.246 362.957 127.884 370.787 130.08 379.499C131.136 383.687 131.034 388.211 132.63 392.243C133.44 394.289 134.844 395.747 135.978 397.571C137.328 399.749 137.16 402.353 137.742 404.771C138.81 409.217 141.642 413.207 143.676 417.251C146.094 422.063 148.284 426.989 150.306 431.975C154.02 441.149 156.492 451.073 160.908 459.923C162.126 462.371 165.588 460.577 165.102 458.153C164.076 453.017 162.078 448.079 160.308 443.159C158.526 438.221 156.666 433.307 154.656 428.459C152.7 423.749 150.624 419.087 148.332 414.527C146.064 410.015 143.274 405.887 142.398 400.841C142.038 398.753 141.576 396.785 140.412 394.979C139.044 392.855 137.352 391.271 136.572 388.799C135.21 384.479 134.904 379.925 133.362 375.623C130.446 367.475 125.538 360.209 119.166 354.371C117.546 352.901 115.158 355.259 116.754 356.777Z" fill="white"/>
<path d="M89.257 132.467C88.249 132.791 86.881 132.299 86.245 131.447C85.363 130.265 83.443 131.285 84.217 132.635C85.435 134.771 87.877 135.239 89.995 134.219C90.973 133.751 90.289 132.137 89.257 132.467Z" fill="#232323"/>
<path d="M464.179 96.4186C462.823 118.799 450.601 141.473 430.315 152.039C409.723 162.773 383.893 156.509 367.339 141.125C357.781 132.245 352.675 120.215 351.049 107.381C349.423 94.5346 350.665 80.7286 356.143 68.8906C365.521 48.6346 386.263 33.1786 409.039 33.2566C417.421 33.2866 424.999 36.3226 432.253 40.3066C439.003 44.0146 445.429 48.1966 450.481 54.0946C460.549 65.8546 464.905 81.1066 464.179 96.4186C464.029 99.5266 468.865 99.5206 469.015 96.4186C469.693 82.1686 466.195 67.7986 458.011 56.0026C453.631 49.6966 448.231 44.5246 441.799 40.3486C435.301 36.1306 428.221 32.2426 420.751 30.0706C396.289 22.9486 369.727 38.0926 356.515 58.2826C349.033 69.7186 345.787 82.9606 345.631 96.5386C345.469 110.993 348.835 126.221 357.805 137.837C372.601 156.995 400.651 167.405 424.039 159.875C450.811 151.259 467.371 123.509 469.015 96.4246C469.201 93.3106 464.365 93.3166 464.179 96.4186Z" fill="#232323"/>
<path d="M407.994 159.953C426.99 159.953 443.16 149.357 453.69 134.099C452.214 131.843 450.468 129.803 448.89 128.225C444.144 123.461 438.102 120.179 431.856 117.689C428.694 116.429 425.184 115.127 423.528 112.145C422.724 110.705 422.466 109.013 421.692 107.555C418.818 102.149 411.714 103.667 406.836 104.405C401.64 105.191 393.468 103.481 390.324 108.731C389.046 110.861 388.824 113.489 387.576 115.631C385.038 119.993 379.362 121.013 374.538 122.495C368.556 124.337 362.928 127.595 358.818 132.311C358.446 132.737 358.086 133.175 357.738 133.631C368.682 150.017 390.126 159.953 407.994 159.953Z" fill="#1D545D"/>
<path d="M407.994 162.371C427.728 162.191 444.678 151.181 455.778 135.317C456.24 134.657 456.228 133.535 455.778 132.875C450.474 125.051 442.998 119.777 434.364 116.123C432.354 115.271 430.23 114.587 428.346 113.465C426.018 112.079 425.388 110.207 424.434 107.807C423.12 104.495 420.57 102.245 417.06 101.531C413.646 100.835 410.232 101.501 406.842 101.969C403.392 102.443 399.888 102.113 396.438 102.653C393.15 103.169 390.018 104.549 388.242 107.507C387.162 109.307 386.814 111.383 386.028 113.303C385.158 115.427 383.502 116.759 381.468 117.713C377.028 119.795 372.084 120.473 367.644 122.657C363.15 124.865 359.148 128.003 356.034 131.927C355.398 132.731 355.008 133.907 355.656 134.855C367.086 151.631 387.75 162.203 407.994 162.371C411.108 162.395 411.108 157.559 407.994 157.535C389.526 157.385 370.284 147.761 359.826 132.413C359.7 133.391 359.574 134.369 359.448 135.341C362.034 132.083 365.166 129.455 368.826 127.475C372.426 125.525 376.29 124.613 380.142 123.359C383.424 122.291 386.67 120.827 388.836 118.037C390.99 115.253 390.87 110.333 393.972 108.425C396.654 106.781 400.416 107.159 403.428 107.063C406.476 106.967 409.428 106.265 412.464 106.091C414.006 106.001 415.674 105.965 417.132 106.559C419.334 107.459 419.808 109.355 420.606 111.431C421.95 114.935 424.47 117.083 427.842 118.613C437.106 122.819 445.686 126.569 451.608 135.317C451.608 134.501 451.608 133.691 451.608 132.875C441.498 147.323 425.952 157.373 408 157.535C404.886 157.565 404.88 162.401 407.994 162.371Z" fill="#232323"/>
<path d="M410.028 95.8907C416.706 92.9027 420.781 87.2867 421.519 79.9847C422.257 72.6347 419.629 64.2167 412.963 60.4067C405.043 55.8767 395.791 56.3027 389.791 63.7427C384.283 70.5707 382.963 80.5727 387.121 88.4087C391.369 96.4127 402.061 100.841 410.275 96.3047C412.681 94.9787 411.048 91.1567 408.414 91.8887C400.722 94.0247 392.683 89.9627 390.847 81.9467C389.113 74.3627 393.282 63.5207 402.036 62.8247C405.708 62.5307 410.455 64.3067 412.975 67.0487C415.135 69.3947 416.173 73.2767 416.461 76.3727C417.073 82.9367 414.096 89.5307 408.078 92.5487C405.816 93.6767 407.796 96.8867 410.028 95.8907Z" fill="#232323"/>
<path d="M408.649 119.417C412.765 119.339 416.893 119.021 420.829 117.743C423.355 116.927 422.281 113.453 419.755 113.843C416.047 114.419 412.393 115.217 408.649 115.559C406.225 115.787 406.129 119.465 408.649 119.417Z" fill="#232323"/>
<path d="M391.279 65.4047C396.259 67.2887 401.287 69.1907 406.549 70.0127C411.811 70.8407 417.397 70.5227 422.161 68.1407C423.313 67.5647 424.525 66.7127 424.711 65.4347C425.005 63.4367 422.707 62.0987 420.739 61.6247C418.213 61.0187 415.585 60.8387 412.999 61.0907C414.907 60.6167 416.731 59.8007 418.357 58.6847C419.131 58.1567 419.935 57.3947 419.833 56.4647C419.737 55.6007 418.903 55.0367 418.129 54.6467C412.123 51.6227 404.893 52.0367 398.461 53.9987C395.629 54.8627 392.815 56.0567 390.697 58.1207C388.579 60.1847 387.271 63.2747 387.955 66.1547" fill="#232323"/>
<path d="M390.817 67.0786C400.657 71.1586 411.721 75.1966 422.167 70.7266C425.551 69.2806 428.785 65.9986 426.187 62.2486C423.499 58.3666 417.163 58.2706 412.993 58.5646C413.215 60.2206 413.443 61.8706 413.665 63.5266C417.139 62.5666 424.483 59.6146 421.861 54.7126C419.569 50.4406 411.691 49.7446 407.437 49.8586C398.503 50.0926 382.609 54.8746 385.477 66.8386C386.137 69.5806 390.805 69.0766 390.505 66.1606C389.767 58.9186 397.795 56.4466 403.585 55.4566C406.747 54.9166 410.083 54.8626 413.215 55.6126C414.019 55.8046 416.953 57.1246 417.115 56.4466C416.851 57.5266 413.245 58.3966 412.321 58.6606C409.675 59.4166 410.065 63.8506 412.993 63.6226C414.229 63.5266 422.935 63.2386 421.639 65.7106C421.135 66.6706 417.847 67.3126 416.857 67.5466C415.267 67.9186 413.665 68.0806 412.033 68.1286C405.001 68.3386 398.293 65.9806 391.735 63.7366C389.581 62.9866 388.813 66.2446 390.817 67.0786Z" fill="#232323"/>
<path d="M387.787 63.7667C385.321 62.2847 382.345 62.6267 380.743 65.2367C378.895 68.2547 380.107 71.6507 381.895 74.3387C381.895 73.3787 381.895 72.4247 381.895 71.4647C378.919 75.4307 380.911 80.1887 383.593 83.6687C385.453 86.0867 389.971 84.8747 388.933 81.4187C388.225 79.0547 388.153 76.7027 388.045 74.2487C387.949 72.1427 387.523 69.8567 388.237 67.8407C389.113 65.3567 385.753 63.7847 384.037 65.3987C381.853 67.4567 382.201 70.4087 382.273 73.1867C382.357 76.4747 382.315 79.8047 383.305 82.9727C384.931 82.0247 386.557 81.0767 388.183 80.1287C386.833 78.4127 385.453 76.4207 386.815 74.3387C387.517 73.2647 387.211 71.7767 386.371 70.8887C385.735 70.3187 385.279 69.6287 385.009 68.8187C384.679 67.7927 385.135 67.2227 386.383 67.1147C388.363 67.8527 389.521 64.8047 387.787 63.7667Z" fill="#232323"/>
<path d="M421.261 67.2946C421.741 68.8006 421.165 70.5526 419.689 71.2306C418.381 71.8306 417.883 73.9126 418.681 75.0706C419.791 76.6726 419.767 78.1666 418.825 79.8706C417.427 82.4026 420.973 85.4686 422.995 83.0866C425.665 79.9366 425.917 75.6646 423.523 72.2446C423.379 73.3786 423.229 74.5126 423.085 75.6406C425.605 72.4906 426.253 69.6526 424.639 65.8786C423.817 63.9406 420.631 65.3146 421.261 67.2946Z" fill="#232323"/>
<path d="M335.059 197.141C357.967 199.709 380.815 201.743 403.867 202.601C426.739 203.453 449.977 204.011 472.825 202.367C476.083 202.133 476.167 197.195 472.825 197.231C449.815 197.465 426.889 198.299 403.867 197.735C380.941 197.171 357.895 196.109 335.059 193.967C333.013 193.775 333.061 196.919 335.059 197.141Z" fill="#232323"/>
<path d="M335.809 231.941C344.665 234.743 354.133 236.207 363.301 237.587C372.415 238.955 381.583 239.969 390.787 240.551C409.459 241.721 428.365 241.475 446.935 239.057C450.307 238.619 450.457 233.309 446.935 233.639C428.623 235.337 410.317 236.171 391.933 235.265C382.771 234.815 373.621 234.017 364.525 232.841C355.231 231.641 346.081 229.631 336.811 228.317C334.471 227.987 333.433 231.191 335.809 231.941Z" fill="#232323"/>
<path d="M469.842 239.141C470.838 239.147 471.84 239.147 472.836 239.153C473.964 239.159 475.044 238.163 474.99 236.999C474.936 235.835 474.042 234.845 472.836 234.845C471.84 234.851 470.838 234.851 469.842 234.857C468.72 234.863 467.646 235.841 467.7 236.999C467.748 238.163 468.636 239.141 469.842 239.141Z" fill="#232323"/>
<path d="M335.689 266.327C349.375 268.415 363.217 269.645 377.053 268.697C379.915 268.499 379.963 264.071 377.053 264.203C363.547 264.815 350.017 264.851 336.601 263.015C334.453 262.721 333.493 265.997 335.689 266.327Z" fill="#232323"/>
<path d="M414.949 273.953C417.613 273.965 420.271 273.977 422.935 273.989C425.587 274.001 425.587 269.861 422.935 269.873C420.271 269.885 417.613 269.897 414.949 269.909C412.351 269.921 412.345 273.941 414.949 273.953Z" fill="#232323"/>
<path d="M295.555 81.2867C296.521 61.9127 297.397 42.5387 298.267 23.1647C298.423 19.6307 297.271 11.9387 301.213 10.3607C303.175 9.57471 305.953 9.78471 308.047 9.59871C310.813 9.35271 313.579 9.11271 316.345 8.88471C325.831 8.10471 335.323 7.42671 344.827 6.85671C382.801 4.58871 420.985 4.42671 459.001 5.66871C468.517 5.98071 478.027 6.40671 487.531 6.92871C491.887 7.16871 496.243 7.42071 500.599 7.70271C502.975 7.85871 505.351 8.01471 507.721 8.18271C510.073 8.35071 512.953 8.19471 515.077 9.39471C517.771 10.9187 518.521 14.3507 518.869 17.1887C519.427 21.7607 519.289 26.4887 519.349 31.0847C519.475 40.5527 519.343 50.0267 519.157 59.4947C518.407 97.8047 518.101 136.115 517.969 174.437C517.837 212.771 517.753 251.111 517.267 289.445C517.045 307.313 516.241 325.211 516.301 343.079C516.337 352.943 517.219 362.789 517.351 372.647C517.495 383.351 517.375 394.595 514.021 404.867C512.767 408.695 510.895 412.649 507.703 415.247C502.489 419.495 494.179 421.055 487.729 422.207C479.233 423.719 470.557 423.983 461.947 424.157C452.473 424.343 442.993 424.343 433.513 424.151C414.559 423.773 395.623 422.651 376.759 420.761C367.399 419.825 358.135 418.235 348.835 416.879C339.955 415.583 331.081 414.779 322.129 414.215C313.273 413.657 304.435 412.781 296.041 409.715C291.853 408.185 288.847 406.415 288.421 401.609C288.013 397.001 288.043 392.321 287.893 387.701C286.669 349.649 286.657 311.561 287.863 273.509C288.163 263.999 288.529 254.489 288.967 244.979C289.135 241.367 283.531 241.379 283.357 244.979C281.413 284.987 280.873 325.061 281.671 365.105C281.869 375.017 282.145 384.929 282.505 394.835C282.655 398.999 282.337 403.679 284.161 407.537C285.715 410.837 288.727 412.757 291.991 414.137C300.337 417.665 309.373 418.919 318.349 419.585C327.865 420.287 337.321 420.839 346.777 422.213C356.377 423.605 365.935 425.261 375.589 426.251C385.411 427.259 395.257 428.033 405.109 428.615C424.951 429.791 444.853 430.169 464.719 429.671C473.437 429.455 482.191 428.969 490.759 427.283C497.599 425.939 505.723 423.995 511.255 419.483C518.935 413.225 521.005 402.071 522.073 392.789C523.405 381.221 522.925 369.503 522.385 357.899C521.767 344.627 522.097 331.481 522.343 318.197C523.099 277.871 523.273 237.539 523.399 197.207C523.525 156.869 523.621 116.531 524.317 76.1987C524.485 66.2927 524.719 56.3867 524.803 46.4747C524.881 37.0427 525.181 27.4127 524.347 18.0107C523.723 10.9907 520.939 4.48071 513.265 3.31671C503.875 1.90071 494.047 1.91871 484.567 1.45671C444.553 -0.487287 404.449 -0.529288 364.441 1.59471C344.437 2.65671 324.445 3.91671 304.501 5.81271C301.219 6.12471 297.679 6.43071 295.843 9.56871C293.905 12.8807 294.469 17.6867 294.319 21.3587C293.899 31.5467 293.479 41.7347 293.059 51.9167C292.657 61.7027 292.315 71.4887 291.961 81.2807C291.865 83.6147 295.441 83.5967 295.555 81.2867Z" fill="#1D545D"/>
<path d="M349.65 390.287C355.362 392.351 362.034 390.503 365.886 385.787C367.614 383.675 368.742 381.059 367.842 378.323C367.05 375.923 364.524 374.447 362.19 375.875C356.424 379.409 363.408 386.525 367.344 387.749C374.64 390.023 381.03 385.349 386.4 380.981C385.104 380.225 383.814 379.475 382.518 378.719C381.492 381.983 383.064 385.367 385.926 387.161C389.94 389.681 394.848 388.295 399.156 387.545C410.268 385.613 421.584 385.235 432.816 386.123C435.846 386.363 435.828 381.647 432.816 381.401C424.476 380.717 416.1 380.777 407.772 381.647C403.89 382.055 400.026 382.637 396.186 383.339C393.78 383.777 385.422 384.983 386.994 379.949C387.744 377.543 384.774 376.331 383.112 377.687C380.166 380.093 376.914 382.829 373.068 383.573C370.398 384.089 366.744 383.435 365.274 380.873C364.884 380.195 364.962 378.815 363.696 380.225C363.444 380.507 363.372 381.695 363.114 382.145C362.31 383.537 361.086 384.647 359.736 385.493C356.976 387.215 353.748 387.569 350.67 386.597C348.3 385.859 347.37 389.465 349.65 390.287Z" fill="#232323"/>
<path d="M379.026 406.625C384.99 407.297 390.918 406.811 396.546 404.681C398.91 403.787 398.016 400.121 395.484 400.823C390.066 402.311 384.642 403.079 379.026 402.647C376.44 402.443 376.524 406.343 379.026 406.625Z" fill="#232323"/>
</svg>
